<svg width="8136" height="5197" viewBox="0 0 8136 5197" fill="none" xmlns="http://www.w3.org/2000/svg">
<g clip-path="url(#clip0_792:2524)">
<rect width="8136" height="5197" fill="#EBEBF0"/>
<g opacity="0.04">
<path d="M2850.42 -36.2119L3126.95 243.126C3219 336.131 3343.84 388.379 3474 388.379C3604.17 388.379 3729.01 336.131 3821.06 243.126L3979.2 83.3216C3995.25 67.1095 4017.02 58.0024 4039.71 58.0024C4062.41 58.0024 4084.17 67.1095 4100.23 83.3216L4101.81 84.8131C4110.02 93.105 4116.54 102.953 4120.99 113.793C4125.44 124.634 4127.73 136.254 4127.73 147.989C4127.73 159.724 4125.44 171.345 4120.99 182.185C4116.54 193.025 4110.02 202.873 4101.81 211.165L3599.78 718.81C3515.85 803.657 3468.7 918.715 3468.7 1038.68C3468.7 1158.65 3515.85 1273.71 3599.78 1358.56V1358.56C3641.34 1400.58 3690.68 1433.92 3744.99 1456.66C3799.31 1479.4 3857.52 1491.11 3916.31 1491.11C3975.1 1491.11 4033.32 1479.4 4087.63 1456.66C4141.94 1433.92 4191.29 1400.58 4232.85 1358.56L5766.67 -191.329L6104.03 -144.772L5545.28 419.869C5487.32 478.418 5441.34 547.933 5409.97 624.443C5378.6 700.953 5362.45 782.959 5362.45 865.776C5362.45 948.594 5378.6 1030.6 5409.97 1107.11C5441.34 1183.62 5487.32 1253.13 5545.28 1311.68V1311.68C5662.32 1429.92 5821.04 1496.35 5986.53 1496.35C6152.03 1496.35 6310.75 1429.92 6427.79 1311.68L7281.73 448.741C7290.54 439.818 7301.01 432.739 7312.53 427.909C7324.05 423.079 7336.41 420.593 7348.88 420.593C7361.36 420.593 7373.71 423.079 7385.23 427.909C7396.76 432.739 7407.22 439.818 7416.04 448.741V448.741C7424.85 457.645 7431.84 468.216 7436.61 479.851C7441.38 491.486 7443.84 503.957 7443.84 516.551C7443.84 529.145 7441.38 541.616 7436.61 553.251C7431.84 564.886 7424.85 575.457 7416.04 584.361L6152.31 1861.84C6119.54 1894.93 6093.55 1934.22 6075.81 1977.48C6058.08 2020.73 6048.95 2067.08 6048.95 2113.9C6048.95 2160.72 6058.08 2207.08 6075.81 2250.33C6093.55 2293.58 6119.54 2332.87 6152.31 2365.96V2365.96C6218.46 2432.78 6308.16 2470.32 6401.69 2470.32C6495.22 2470.32 6584.93 2432.78 6651.08 2365.96L7526.94 1480.86C7536.39 1471.31 7547.61 1463.74 7559.95 1458.57C7572.3 1453.4 7585.53 1450.74 7598.89 1450.74C7612.26 1450.74 7625.49 1453.4 7637.84 1458.57C7650.18 1463.74 7661.4 1471.31 7670.85 1480.86V1480.86C7689.88 1500.17 7700.57 1526.32 7700.57 1553.57C7700.57 1580.83 7689.88 1606.98 7670.85 1626.28L7655.24 1641.73C7515.57 1782.9 7437.1 1974.36 7437.1 2173.99C7437.1 2373.62 7515.57 2565.07 7655.24 2706.24L8308.88 3366.76V-462.356" fill="#8785A2"/>
<path d="M2216.95 18.3668C2250.95 -362.122 1973.28 -698.423 1596.76 -732.782C1220.25 -767.142 887.455 -486.548 853.455 -106.059C819.454 274.429 1097.12 610.73 1473.64 645.09C1850.16 679.449 2182.95 398.856 2216.95 18.3668Z" fill="#FFC7C7"/>
<path d="M7156.59 5716.31C7393.79 5716.31 7586.08 5521.99 7586.08 5282.29C7586.08 5042.58 7393.79 4848.26 7156.59 4848.26C6919.38 4848.26 6727.09 5042.58 6727.09 5282.29C6727.09 5521.99 6919.38 5716.31 7156.59 5716.31Z" fill="#FFC7C7"/>
<path d="M2670.35 418.165C2592.53 418.143 2516.45 441.447 2451.73 485.127C2387.01 528.807 2336.57 590.901 2306.77 663.556C2276.98 736.211 2269.18 816.162 2284.36 893.298C2299.54 970.433 2337.01 1041.29 2392.04 1096.9C2447.07 1152.51 2517.19 1190.38 2593.52 1205.72C2669.85 1221.05 2748.97 1213.17 2820.86 1183.06C2892.76 1152.96 2954.21 1101.98 2997.43 1036.58C3040.65 971.182 3063.71 894.296 3063.69 815.651C3063.55 710.274 3022.07 609.254 2948.33 534.741C2874.6 460.229 2774.63 418.305 2670.35 418.165V418.165ZM2670.35 1134.83C2607.8 1134.83 2546.65 1116.09 2494.64 1080.97C2442.63 1045.85 2402.09 995.934 2378.16 937.534C2354.22 879.133 2347.96 814.87 2360.16 752.872C2372.36 690.874 2402.48 633.926 2446.72 589.227C2490.95 544.529 2547.3 514.09 2608.65 501.758C2670 489.425 2733.6 495.755 2791.39 519.945C2849.18 544.135 2898.57 585.1 2933.33 637.66C2968.08 690.219 2986.63 752.012 2986.63 815.225C2986.63 899.99 2953.31 981.284 2893.99 1041.22C2834.68 1101.16 2754.24 1134.83 2670.35 1134.83Z" fill="#8785A2"/>
<path d="M7599.19 3264.59C7693.65 3225.05 7738.51 3115.62 7699.38 3020.16C7660.25 2924.71 7551.96 2879.38 7457.5 2918.92C7363.04 2958.46 7318.19 3067.89 7357.31 3163.34C7396.44 3258.8 7504.73 3304.13 7599.19 3264.59Z" fill="#FFC7C7"/>
<path d="M2502.52 3590.92C2551.54 3590.92 2591.29 3550.76 2591.29 3501.21C2591.29 3451.67 2551.54 3411.51 2502.52 3411.51C2453.49 3411.51 2413.75 3451.67 2413.75 3501.21C2413.75 3550.76 2453.49 3590.92 2502.52 3590.92Z" fill="#FFC7C7"/>
<path d="M2692.49 3398.83C2741.52 3398.83 2781.26 3358.67 2781.26 3309.13C2781.26 3259.59 2741.52 3219.43 2692.49 3219.43C2643.47 3219.43 2603.73 3259.59 2603.73 3309.13C2603.73 3358.67 2643.47 3398.83 2692.49 3398.83Z" fill="#FFC7C7"/>
<path d="M392.658 2243.04C464.954 2169.98 464.954 2051.53 392.658 1978.47C320.362 1905.41 203.147 1905.41 130.851 1978.47C58.5552 2051.53 58.5552 2169.98 130.851 2243.04C203.147 2316.09 320.362 2316.09 392.658 2243.04Z" fill="#FFC7C7"/>
<path d="M73.2241 3301.57L937.705 2427.97C983.767 2381.41 1038.46 2344.47 1098.65 2319.27C1158.84 2294.07 1223.35 2281.1 1288.5 2281.1C1353.66 2281.1 1418.17 2294.07 1478.36 2319.27C1538.55 2344.47 1593.24 2381.41 1639.3 2427.97C1685.38 2474.52 1721.93 2529.78 1746.87 2590.61C1771.81 2651.43 1784.65 2716.63 1784.65 2782.47C1784.65 2848.31 1771.81 2913.5 1746.87 2974.33C1721.93 3035.15 1685.38 3090.42 1639.3 3136.97L1245.44 3534.99C1225.21 3555.42 1209.17 3579.67 1198.22 3606.37C1187.28 3633.07 1181.64 3661.68 1181.64 3690.58C1181.64 3719.48 1187.28 3748.1 1198.22 3774.79C1209.17 3801.49 1225.21 3825.75 1245.44 3846.18V3846.18C1265.66 3866.62 1289.66 3882.83 1316.08 3893.89C1342.5 3904.95 1370.81 3910.65 1399.41 3910.65C1428.01 3910.65 1456.33 3904.95 1482.74 3893.89C1509.16 3882.83 1533.17 3866.62 1553.38 3846.18L1638.99 3759.78C1680.56 3717.75 1729.91 3684.42 1784.23 3661.67C1838.55 3638.93 1896.78 3627.22 1955.58 3627.22C2014.38 3627.22 2072.6 3638.93 2126.92 3661.67C2181.24 3684.42 2230.6 3717.75 2272.17 3759.78C2356.1 3844.64 2403.25 3959.72 2403.25 4079.71C2403.25 4199.69 2356.1 4314.77 2272.17 4399.63L1921.31 4754.08C1903.16 4772.46 1892.96 4797.36 1892.96 4823.33C1892.96 4849.29 1903.16 4874.2 1921.31 4892.58C1939.5 4910.92 1964.15 4921.23 1989.84 4921.23C2015.54 4921.23 2040.18 4910.92 2058.37 4892.58L2913.89 4027.93C2986.52 3954.55 3085.02 3913.33 3187.73 3913.33C3290.43 3913.33 3388.93 3954.55 3461.57 4027.93C3534.17 4101.31 3574.96 4200.83 3574.96 4304.6C3574.96 4408.37 3534.17 4507.89 3461.57 4581.28L3230.48 4814.7C3222.57 4822.62 3216.3 4832.05 3212.01 4842.43C3207.73 4852.82 3205.53 4863.96 3205.53 4875.21C3205.53 4886.46 3207.73 4897.6 3212.01 4907.99C3216.3 4918.37 3222.57 4927.8 3230.48 4935.72V4935.72C3238.32 4943.73 3247.65 4950.08 3257.94 4954.42C3268.23 4958.75 3279.26 4960.99 3290.41 4960.99C3301.56 4960.99 3312.59 4958.75 3322.88 4954.42C3333.17 4950.08 3342.5 4943.73 3350.34 4935.72L3369.43 4916.44C3564.05 4719.78 3828 4609.3 4103.23 4609.3C4378.46 4609.3 4642.42 4719.78 4837.04 4916.44L5232.59 5316.16H-1175.95C-1175.95 5316.16 150.184 3379.34 73.2241 3301.57Z" fill="#8785A2"/>
<path d="M6390.68 4316.54C6395.09 4312.07 6400.34 4308.53 6406.11 4306.11C6411.88 4303.7 6418.06 4302.45 6424.31 4302.45C6430.55 4302.45 6436.74 4303.7 6442.51 4306.11C6448.28 4308.53 6453.52 4312.07 6457.94 4316.54L6601 4461C6605.42 4465.45 6608.92 4470.74 6611.31 4476.56C6613.7 4482.38 6614.93 4488.63 6614.93 4494.93C6614.93 4501.23 6613.7 4507.47 6611.31 4513.3C6608.92 4519.12 6605.42 4524.41 6601 4528.86V4528.86C6596.59 4533.32 6591.36 4536.86 6585.6 4539.28C6579.84 4541.69 6573.66 4542.94 6567.42 4542.94C6561.19 4542.94 6555.01 4541.69 6549.25 4539.28C6543.49 4536.86 6538.25 4533.32 6533.84 4528.86L6390.78 4384.4C6381.9 4375.39 6376.91 4363.2 6376.89 4350.49C6376.87 4337.78 6381.83 4325.57 6390.68 4316.54V4316.54Z" fill="#FFC7C7"/>
<path d="M6601 4316.53C6605.41 4320.99 6608.92 4326.28 6611.31 4332.1C6613.7 4337.92 6614.93 4344.16 6614.93 4350.46C6614.93 4356.77 6613.7 4363.01 6611.31 4368.83C6608.92 4374.65 6605.41 4379.94 6601 4384.4L6458.04 4528.86C6453.63 4533.33 6448.38 4536.87 6442.61 4539.28C6436.84 4541.7 6430.66 4542.94 6424.41 4542.94C6418.17 4542.94 6411.98 4541.7 6406.21 4539.28C6400.44 4536.87 6395.2 4533.33 6390.78 4528.86V4528.86C6381.92 4519.84 6376.94 4507.64 6376.94 4494.93C6376.94 4482.22 6381.92 4470.02 6390.78 4461L6533.84 4316.53C6538.25 4312.07 6543.48 4308.53 6549.25 4306.12C6555.01 4303.7 6561.18 4302.46 6567.42 4302.46C6573.66 4302.46 6579.84 4303.7 6585.6 4306.12C6591.36 4308.53 6596.59 4312.07 6601 4316.53Z" fill="#FFC7C7"/>
<path d="M2405.11 2022.81C2410.9 2016.97 2418.75 2013.69 2426.93 2013.69C2435.11 2013.69 2442.96 2016.97 2448.75 2022.81L2542.16 2116.67C2545.04 2119.57 2547.32 2123.02 2548.88 2126.81C2550.44 2130.6 2551.24 2134.67 2551.24 2138.78C2551.24 2142.88 2550.44 2146.95 2548.88 2150.74C2547.32 2154.54 2545.04 2157.98 2542.16 2160.88V2160.88C2536.37 2166.73 2528.52 2170.01 2520.34 2170.01C2512.15 2170.01 2504.3 2166.73 2498.51 2160.88L2405.11 2066.92C2402.23 2064.03 2399.95 2060.59 2398.39 2056.81C2396.84 2053.02 2396.04 2048.96 2396.04 2044.87C2396.04 2040.77 2396.84 2036.71 2398.39 2032.92C2399.95 2029.14 2402.23 2025.7 2405.11 2022.81V2022.81Z" fill="#FFC7C7"/>
<path d="M2542.16 2022.81C2545.03 2025.7 2547.31 2029.14 2548.87 2032.92C2550.43 2036.71 2551.23 2040.77 2551.23 2044.87C2551.23 2048.96 2550.43 2053.02 2548.87 2056.81C2547.31 2060.59 2545.03 2064.03 2542.16 2066.92L2449.17 2160.99C2443.38 2166.83 2435.53 2170.11 2427.35 2170.11C2419.17 2170.11 2411.32 2166.83 2405.53 2160.99V2160.99C2402.65 2158.09 2400.37 2154.65 2398.81 2150.85C2397.25 2147.06 2396.45 2142.99 2396.45 2138.88C2396.45 2134.78 2397.25 2130.71 2398.81 2126.92C2400.37 2123.12 2402.65 2119.68 2405.53 2116.78L2498.51 2022.81C2504.3 2016.97 2512.15 2013.69 2520.33 2013.69C2528.52 2013.69 2536.37 2016.97 2542.16 2022.81V2022.81Z" fill="#FFC7C7"/>
<path d="M4443.49 1350.89C4554.58 1350.89 4644.64 1259.88 4644.64 1147.62C4644.64 1035.36 4554.58 944.348 4443.49 944.348C4332.4 944.348 4242.34 1035.36 4242.34 1147.62C4242.34 1259.88 4332.4 1350.89 4443.49 1350.89Z" fill="#FFC7C7"/>
<path d="M804.343 1173.93C866.002 1173.93 915.987 1123.42 915.987 1061.11C915.987 998.8 866.002 948.288 804.343 948.288C742.683 948.288 692.698 998.8 692.698 1061.11C692.698 1123.42 742.683 1173.93 804.343 1173.93Z" fill="#FFC7C7"/>
<path d="M5442.6 1752.32C5461 1752.32 5475.91 1737.24 5475.91 1718.65C5475.91 1700.06 5461 1684.99 5442.6 1684.99C5424.2 1684.99 5409.28 1700.06 5409.28 1718.65C5409.28 1737.24 5424.2 1752.32 5442.6 1752.32Z" fill="#FFC7C7"/>
<path d="M5442.6 1928C5461 1928 5475.91 1912.92 5475.91 1894.33C5475.91 1875.74 5461 1860.66 5442.6 1860.66C5424.2 1860.66 5409.28 1875.74 5409.28 1894.33C5409.28 1912.92 5424.2 1928 5442.6 1928Z" fill="#FFC7C7"/>
<path d="M5611.91 1752.32C5630.31 1752.32 5645.22 1737.24 5645.22 1718.65C5645.22 1700.06 5630.31 1684.99 5611.91 1684.99C5593.51 1684.99 5578.59 1700.06 5578.59 1718.65C5578.59 1737.24 5593.51 1752.32 5611.91 1752.32Z" fill="#FFC7C7"/>
<path d="M5611.91 1928C5630.31 1928 5645.22 1912.92 5645.22 1894.33C5645.22 1875.74 5630.31 1860.66 5611.91 1860.66C5593.51 1860.66 5578.59 1875.74 5578.59 1894.33C5578.59 1912.92 5593.51 1928 5611.91 1928Z" fill="#FFC7C7"/>
<path d="M704.4 1435.16C722.798 1435.16 737.714 1420.09 737.714 1401.49C737.714 1382.9 722.798 1367.83 704.4 1367.83C686.001 1367.83 671.085 1382.9 671.085 1401.49C671.085 1420.09 686.001 1435.16 704.4 1435.16Z" fill="#FFC7C7"/>
<path d="M704.4 1610.73C722.798 1610.73 737.714 1595.66 737.714 1577.06C737.714 1558.47 722.798 1543.4 704.4 1543.4C686.001 1543.4 671.085 1558.47 671.085 1577.06C671.085 1595.66 686.001 1610.73 704.4 1610.73Z" fill="#FFC7C7"/>
<path d="M873.713 1435.16C892.111 1435.16 907.027 1420.09 907.027 1401.49C907.027 1382.9 892.111 1367.83 873.713 1367.83C855.314 1367.83 840.398 1382.9 840.398 1401.49C840.398 1420.09 855.314 1435.16 873.713 1435.16Z" fill="#FFC7C7"/>
<path d="M873.713 1610.73C892.111 1610.73 907.027 1595.66 907.027 1577.06C907.027 1558.47 892.111 1543.4 873.713 1543.4C855.314 1543.4 840.398 1558.47 840.398 1577.06C840.398 1595.66 855.314 1610.73 873.713 1610.73Z" fill="#FFC7C7"/>
<path d="M361.665 1435.16C380.064 1435.16 394.979 1420.09 394.979 1401.49C394.979 1382.9 380.064 1367.83 361.665 1367.83C343.266 1367.83 328.351 1382.9 328.351 1401.49C328.351 1420.09 343.266 1435.16 361.665 1435.16Z" fill="#FFC7C7"/>
<path d="M361.665 1610.73C380.064 1610.73 394.979 1595.66 394.979 1577.06C394.979 1558.47 380.064 1543.4 361.665 1543.4C343.266 1543.4 328.351 1558.47 328.351 1577.06C328.351 1595.66 343.266 1610.73 361.665 1610.73Z" fill="#FFC7C7"/>
<path d="M530.976 1435.16C549.375 1435.16 564.29 1420.09 564.29 1401.49C564.29 1382.9 549.375 1367.83 530.976 1367.83C512.577 1367.83 497.662 1382.9 497.662 1401.49C497.662 1420.09 512.577 1435.16 530.976 1435.16Z" fill="#FFC7C7"/>
<path d="M530.976 1610.73C549.375 1610.73 564.29 1595.66 564.29 1577.06C564.29 1558.47 549.375 1543.4 530.976 1543.4C512.577 1543.4 497.662 1558.47 497.662 1577.06C497.662 1595.66 512.577 1610.73 530.976 1610.73Z" fill="#FFC7C7"/>
<path d="M7142.46 4367.03C7160.86 4367.03 7175.78 4351.96 7175.78 4333.37C7175.78 4314.78 7160.86 4299.7 7142.46 4299.7C7124.06 4299.7 7109.15 4314.78 7109.15 4333.37C7109.15 4351.96 7124.06 4367.03 7142.46 4367.03Z" fill="#FFC7C7"/>
<path d="M7175.77 4509.04C7175.77 4515.7 7173.82 4522.21 7170.16 4527.75C7166.5 4533.28 7161.3 4537.6 7155.21 4540.15C7149.12 4542.7 7142.42 4543.36 7135.96 4542.06C7129.5 4540.76 7123.56 4537.56 7118.9 4532.85C7114.24 4528.14 7111.07 4522.14 7109.79 4515.61C7108.5 4509.08 7109.16 4502.31 7111.68 4496.16C7114.2 4490.01 7118.47 4484.75 7123.95 4481.05C7129.43 4477.35 7135.87 4475.38 7142.46 4475.38C7146.84 4475.37 7151.18 4476.23 7155.23 4477.91C7159.27 4479.6 7162.95 4482.08 7166.05 4485.21C7169.14 4488.34 7171.6 4492.05 7173.27 4496.14C7174.94 4500.24 7175.79 4504.62 7175.77 4509.04Z" fill="#FFC7C7"/>
<path d="M7311.77 4367.03C7330.17 4367.03 7345.09 4351.96 7345.09 4333.37C7345.09 4314.78 7330.17 4299.7 7311.77 4299.7C7293.37 4299.7 7278.46 4314.78 7278.46 4333.37C7278.46 4351.96 7293.37 4367.03 7311.77 4367.03Z" fill="#FFC7C7"/>
<path d="M7345.09 4509.04C7345.09 4515.7 7343.13 4522.21 7339.47 4527.75C7335.81 4533.28 7330.61 4537.6 7324.52 4540.15C7318.43 4542.69 7311.73 4543.36 7305.27 4542.06C7298.81 4540.76 7292.87 4537.56 7288.21 4532.85C7283.55 4528.14 7280.38 4522.14 7279.1 4515.61C7277.81 4509.08 7278.47 4502.31 7280.99 4496.16C7283.51 4490.01 7287.78 4484.75 7293.26 4481.05C7298.74 4477.35 7305.18 4475.38 7311.77 4475.38C7320.61 4475.38 7329.08 4478.93 7335.33 4485.24C7341.58 4491.55 7345.09 4500.12 7345.09 4509.04V4509.04Z" fill="#FFC7C7"/>
<path d="M6799.83 4367.03C6818.23 4367.03 6833.14 4351.96 6833.14 4333.37C6833.14 4314.78 6818.23 4299.7 6799.83 4299.7C6781.43 4299.7 6766.52 4314.78 6766.52 4333.37C6766.52 4351.96 6781.43 4367.03 6799.83 4367.03Z" fill="#FFC7C7"/>
<path d="M6832.93 4509.04C6832.93 4515.71 6830.98 4522.22 6827.31 4527.76C6823.65 4533.3 6818.44 4537.61 6812.34 4540.16C6806.25 4542.7 6799.55 4543.36 6793.08 4542.06C6786.62 4540.75 6780.68 4537.53 6776.02 4532.81C6771.37 4528.09 6768.21 4522.08 6766.93 4515.55C6765.66 4509.01 6766.33 4502.24 6768.87 4496.09C6771.41 4489.94 6775.69 4484.69 6781.19 4481C6786.68 4477.31 6793.13 4475.36 6799.72 4475.38C6804.09 4475.38 6808.42 4476.25 6812.46 4477.94C6816.49 4479.64 6820.16 4482.12 6823.24 4485.25C6826.33 4488.37 6828.77 4492.09 6830.44 4496.17C6832.1 4500.25 6832.95 4504.63 6832.93 4509.04V4509.04Z" fill="#FFC7C7"/>
<path d="M6969.14 4367.03C6987.54 4367.03 7002.46 4351.96 7002.46 4333.37C7002.46 4314.78 6987.54 4299.7 6969.14 4299.7C6950.74 4299.7 6935.83 4314.78 6935.83 4333.37C6935.83 4351.96 6950.74 4367.03 6969.14 4367.03Z" fill="#FFC7C7"/>
<path d="M7002.35 4509.04C7002.35 4515.71 7000.39 4522.22 6996.73 4527.76C6993.06 4533.3 6987.85 4537.61 6981.76 4540.16C6975.67 4542.7 6968.96 4543.36 6962.5 4542.06C6956.03 4540.75 6950.1 4537.53 6945.44 4532.81C6940.79 4528.09 6937.62 4522.08 6936.35 4515.55C6935.08 4509.01 6935.75 4502.24 6938.29 4496.09C6940.83 4489.94 6945.11 4484.69 6950.6 4481C6956.1 4477.31 6962.55 4475.36 6969.14 4475.38C6973.51 4475.38 6977.84 4476.25 6981.87 4477.94C6985.91 4479.64 6989.58 4482.12 6992.66 4485.25C6995.75 4488.37 6998.19 4492.09 6999.85 4496.17C7001.51 4500.25 7002.36 4504.63 7002.35 4509.04V4509.04Z" fill="#FFC7C7"/>
<path d="M7827.19 4367.03C7845.59 4367.03 7860.5 4351.96 7860.5 4333.37C7860.5 4314.78 7845.59 4299.7 7827.19 4299.7C7808.79 4299.7 7793.88 4314.78 7793.88 4333.37C7793.88 4351.96 7808.79 4367.03 7827.19 4367.03Z" fill="#FFC7C7"/>
<path d="M7860.5 4509.04C7860.5 4515.7 7858.55 4522.21 7854.89 4527.75C7851.23 4533.28 7846.03 4537.6 7839.94 4540.15C7833.85 4542.7 7827.15 4543.36 7820.69 4542.06C7814.23 4540.76 7808.29 4537.56 7803.63 4532.85C7798.97 4528.14 7795.8 4522.14 7794.52 4515.61C7793.23 4509.08 7793.89 4502.31 7796.41 4496.16C7798.93 4490.01 7803.2 4484.75 7808.68 4481.05C7814.16 4477.35 7820.6 4475.38 7827.19 4475.38C7831.57 4475.37 7835.91 4476.23 7839.95 4477.91C7844 4479.6 7847.68 4482.08 7850.78 4485.21C7853.87 4488.34 7856.33 4492.05 7858 4496.14C7859.67 4500.24 7860.52 4504.62 7860.5 4509.04Z" fill="#FFC7C7"/>
<path d="M8029.81 4333.37C8029.81 4340.03 8027.86 4346.54 8024.2 4352.07C8020.54 4357.61 8015.34 4361.92 8009.25 4364.47C8003.16 4367.02 7996.46 4367.69 7990 4366.39C7983.54 4365.09 7977.6 4361.88 7972.95 4357.17C7968.29 4352.47 7965.11 4346.47 7963.83 4339.94C7962.54 4333.41 7963.2 4326.64 7965.72 4320.49C7968.25 4314.33 7972.51 4309.08 7977.99 4305.38C7983.47 4301.68 7989.91 4299.7 7996.5 4299.7C8005.34 4299.7 8013.81 4303.25 8020.06 4309.56C8026.3 4315.88 8029.81 4324.44 8029.81 4333.37V4333.37Z" fill="#FFC7C7"/>
<path d="M8029.81 4509.04C8029.81 4515.7 8027.86 4522.21 8024.2 4527.75C8020.54 4533.28 8015.34 4537.6 8009.25 4540.15C8003.16 4542.7 7996.46 4543.36 7990 4542.06C7983.54 4540.76 7977.6 4537.56 7972.95 4532.85C7968.29 4528.14 7965.11 4522.14 7963.83 4515.61C7962.54 4509.08 7963.2 4502.31 7965.72 4496.16C7968.25 4490.01 7972.51 4484.75 7977.99 4481.05C7983.47 4477.35 7989.91 4475.38 7996.5 4475.38C8000.88 4475.37 8005.22 4476.23 8009.27 4477.91C8013.31 4479.6 8016.99 4482.08 8020.09 4485.21C8023.18 4488.34 8025.64 4492.05 8027.31 4496.14C8028.98 4500.24 8029.83 4504.62 8029.81 4509.04Z" fill="#FFC7C7"/>
<path d="M7484.56 4367.03C7502.96 4367.03 7517.88 4351.96 7517.88 4333.37C7517.88 4314.78 7502.96 4299.7 7484.56 4299.7C7466.16 4299.7 7451.25 4314.78 7451.25 4333.37C7451.25 4351.96 7466.16 4367.03 7484.56 4367.03Z" fill="#FFC7C7"/>
<path d="M7518.19 4509.04C7518.19 4515.71 7516.23 4522.22 7512.57 4527.76C7508.9 4533.3 7503.69 4537.61 7497.6 4540.16C7491.51 4542.7 7484.8 4543.36 7478.34 4542.06C7471.87 4540.75 7465.94 4537.53 7461.28 4532.81C7456.63 4528.09 7453.46 4522.08 7452.19 4515.55C7450.92 4509.01 7451.59 4502.24 7454.13 4496.09C7456.67 4489.94 7460.95 4484.69 7466.45 4481C7471.94 4477.31 7478.39 4475.36 7484.98 4475.38C7489.35 4475.38 7493.68 4476.25 7497.71 4477.94C7501.75 4479.64 7505.42 4482.12 7508.5 4485.25C7511.59 4488.37 7514.03 4492.09 7515.69 4496.17C7517.36 4500.25 7518.21 4504.63 7518.19 4509.04V4509.04Z" fill="#FFC7C7"/>
<path d="M7653.87 4367.03C7672.27 4367.03 7687.19 4351.96 7687.19 4333.37C7687.19 4314.78 7672.27 4299.7 7653.87 4299.7C7635.47 4299.7 7620.56 4314.78 7620.56 4333.37C7620.56 4351.96 7635.47 4367.03 7653.87 4367.03Z" fill="#FFC7C7"/>
<path d="M7686.87 4509.04C7686.87 4515.71 7684.91 4522.22 7681.25 4527.76C7677.58 4533.3 7672.37 4537.61 7666.28 4540.16C7660.19 4542.7 7653.48 4543.36 7647.02 4542.06C7640.55 4540.75 7634.62 4537.53 7629.96 4532.81C7625.31 4528.09 7622.14 4522.08 7620.87 4515.55C7619.6 4509.01 7620.27 4502.24 7622.81 4496.09C7625.35 4489.94 7629.63 4484.69 7635.12 4481C7640.62 4477.31 7647.07 4475.36 7653.66 4475.38C7658.03 4475.38 7662.36 4476.25 7666.39 4477.94C7670.43 4479.64 7674.1 4482.12 7677.18 4485.25C7680.27 4488.37 7682.71 4492.09 7684.37 4496.17C7686.04 4500.25 7686.88 4504.63 7686.87 4509.04V4509.04Z" fill="#FFC7C7"/>
<path d="M2673.73 4345.51C2719.09 4345.51 2755.85 4308.36 2755.85 4262.52C2755.85 4216.69 2719.09 4179.53 2673.73 4179.53C2628.37 4179.53 2591.6 4216.69 2591.6 4262.52C2591.6 4308.36 2628.37 4345.51 2673.73 4345.51Z" fill="#FFC7C7"/>
<path d="M7101.03 2001.18C7146.38 2001.18 7183.15 1964.03 7183.15 1918.19C7183.15 1872.36 7146.38 1835.2 7101.03 1835.2C7055.67 1835.2 7018.9 1872.36 7018.9 1918.19C7018.9 1964.03 7055.67 2001.18 7101.03 2001.18Z" fill="#FFC7C7"/>
<path d="M7032.19 1398.83L8372.97 43.9033" stroke="#FFE2E2" stroke-width="6" stroke-miterlimit="10" stroke-linecap="round"/>
<path d="M4636.21 567.848L5338.23 -141.577" stroke="#FFE2E2" stroke-width="6" stroke-miterlimit="10" stroke-linecap="round"/>
<path d="M80.814 4396.97L1443.42 3019.88" stroke="#FFE2E2" stroke-width="6" stroke-miterlimit="10" stroke-linecap="round"/>
<path d="M1562.34 6084.61L2783.68 4850.28" stroke="#FFE2E2" stroke-width="6" stroke-miterlimit="10" stroke-linecap="round"/>
<path d="M-588.42 4683.23L632.921 3449.01" stroke="#FFE2E2" stroke-width="6" stroke-miterlimit="10" stroke-linecap="round"/>
<path d="M1947.57 2254.74C2039.27 2254.74 2113.61 2179.62 2113.61 2086.95C2113.61 1994.28 2039.27 1919.15 1947.57 1919.15C1855.86 1919.15 1781.52 1994.28 1781.52 2086.95C1781.52 2179.62 1855.86 2254.74 1947.57 2254.74Z" fill="#8785A2"/>
<path d="M5031.12 1322.98C5079.57 1322.98 5118.84 1283.29 5118.84 1234.34C5118.84 1185.38 5079.57 1145.7 5031.12 1145.7C4982.68 1145.7 4943.41 1185.38 4943.41 1234.34C4943.41 1283.29 4982.68 1322.98 5031.12 1322.98Z" fill="#8785A2"/>
<path d="M7821.5 1376.56C7869.94 1376.56 7909.21 1336.88 7909.21 1287.93C7909.21 1238.97 7869.94 1199.29 7821.5 1199.29C7773.06 1199.29 7733.79 1238.97 7733.79 1287.93C7733.79 1336.88 7773.06 1376.56 7821.5 1376.56Z" fill="#FFE2E2"/>
<path d="M1000.12 4348.82C1119.18 4348.82 1215.71 4251.27 1215.71 4130.95C1215.71 4010.63 1119.18 3913.08 1000.12 3913.08C881.047 3913.08 784.523 4010.63 784.523 4130.95C784.523 4251.27 881.047 4348.82 1000.12 4348.82Z" fill="#FFE2E2"/>
<path d="M5308.71 4538.13C5162.71 4538.03 5019.95 4581.69 4898.51 4663.59C4777.07 4745.49 4682.41 4861.96 4626.48 4998.25C4570.56 5134.54 4555.91 5284.53 4584.36 5429.24C4612.82 5573.95 4683.12 5706.88 4786.36 5811.21C4889.59 5915.54 5021.14 5986.58 5164.34 6015.33C5307.54 6044.09 5455.96 6029.28 5590.83 5972.77C5725.7 5916.26 5840.95 5820.59 5922 5697.87C6003.05 5575.15 6046.26 5430.89 6046.15 5283.35C6046.01 5085.75 5968.27 4896.28 5830 4756.56C5691.74 4616.83 5504.25 4538.27 5308.71 4538.13V4538.13ZM5308.71 5881.77C5191.59 5881.77 5077.1 5846.67 4979.72 5780.91C4882.33 5715.16 4806.43 5621.7 4761.61 5512.35C4716.79 5403.01 4705.07 5282.69 4727.92 5166.61C4750.77 5050.53 4807.16 4943.9 4889.98 4860.21C4972.8 4776.52 5078.31 4719.53 5193.18 4696.44C5308.05 4673.35 5427.12 4685.2 5535.32 4730.49C5643.53 4775.78 5736.01 4852.48 5801.08 4950.89C5866.15 5049.3 5900.88 5165 5900.88 5283.35C5900.85 5442.05 5838.45 5594.24 5727.4 5706.46C5616.36 5818.68 5465.75 5881.74 5308.71 5881.77V5881.77Z" fill="#8785A2"/>
<path d="M543.312 5359.1C558.177 5354.09 1121.67 4778.37 1337.26 4557.84C1348.11 4546.75 1361.02 4537.94 1375.25 4531.91C1389.48 4525.88 1404.75 4522.75 1420.18 4522.7C1435.6 4522.65 1450.89 4525.68 1465.16 4531.62C1479.42 4537.56 1492.39 4546.29 1503.31 4557.31V4557.31C1525.27 4579.5 1537.6 4609.6 1537.6 4640.99C1537.6 4672.38 1525.27 4702.48 1503.31 4724.67L1326.19 4903.66C1320.72 4909.16 1316.38 4915.7 1313.42 4922.9C1310.46 4930.11 1308.94 4937.83 1308.94 4945.63C1308.94 4953.43 1310.46 4961.15 1313.42 4968.36C1316.38 4975.56 1320.72 4982.1 1326.19 4987.61V4987.61C1331.63 4993.13 1338.1 4997.51 1345.21 5000.51C1352.33 5003.5 1359.97 5005.04 1367.68 5005.04C1375.39 5005.04 1383.02 5003.5 1390.14 5000.51C1397.26 4997.51 1403.73 4993.13 1409.16 4987.61L1482.96 4913.03C1494.87 4900.98 1509.01 4891.42 1524.57 4884.9C1540.14 4878.37 1556.83 4875.02 1573.68 4875.02C1590.53 4875.02 1607.22 4878.37 1622.78 4884.9C1638.35 4891.42 1652.49 4900.98 1664.4 4913.03V4913.03C1688.45 4937.35 1701.97 4970.32 1701.97 5004.7C1701.97 5039.09 1688.45 5072.06 1664.4 5096.38V5096.38C1654.21 5106.7 1648.49 5120.69 1648.49 5135.27C1648.49 5149.84 1654.21 5163.83 1664.4 5174.15L1872.08 5383.92H524.863" fill="#8785A2"/>
<path d="M6874.15 -144.027L6232.01 504.671C6217.83 518.98 6206.57 535.976 6198.89 554.687C6191.21 573.397 6187.26 593.455 6187.26 613.711C6187.26 633.967 6191.21 654.025 6198.89 672.735C6206.57 691.446 6217.83 708.442 6232.01 722.751C6260.62 751.649 6299.41 767.883 6339.86 767.883C6380.31 767.883 6419.11 751.649 6447.71 722.751L6790.76 375.976C6800.62 366.215 6813.86 360.749 6827.66 360.749C6841.46 360.749 6854.71 366.215 6864.56 375.976V375.976C6874.22 385.933 6879.63 399.32 6879.63 413.263C6879.63 427.206 6874.22 440.594 6864.56 450.551L6748.59 569.019C6740.92 576.757 6734.83 585.949 6730.68 596.067C6726.53 606.186 6724.39 617.033 6724.39 627.987C6724.39 638.941 6726.53 649.788 6730.68 659.907C6734.83 670.025 6740.92 679.216 6748.59 686.955C6756.25 694.708 6765.35 700.859 6775.36 705.056C6785.37 709.253 6796.11 711.414 6806.95 711.414C6817.79 711.414 6828.52 709.253 6838.53 705.056C6848.54 700.859 6857.64 694.708 6865.3 686.955L7179.88 369.477C7200.58 348.558 7225.15 331.964 7252.19 320.642C7279.24 309.321 7308.22 303.493 7337.49 303.493C7366.76 303.493 7395.75 309.321 7422.79 320.642C7449.84 331.964 7474.41 348.558 7495.1 369.477L7503.75 378.213L8115.21 -239.697C8115.21 -239.697 6874.15 -151.165 6874.15 -144.027Z" fill="#8785A2"/>
<path d="M3377.54 5446.99L4902.82 3905.62" stroke="#FFC7C7" stroke-width="6" stroke-miterlimit="10" stroke-linecap="round"/>
<path d="M-748.033 6283.09L777.143 4741.72" stroke="#FFC7C7" stroke-width="6" stroke-miterlimit="10" stroke-linecap="round"/>
<path d="M5125.16 -476.953L3889.8 771.438" stroke="#FFC7C7" stroke-width="6" stroke-miterlimit="10" stroke-linecap="round"/>
<path d="M2568.52 939.553L2258.67 1252.66" stroke="#FFC7C7" stroke-width="6" stroke-miterlimit="10" stroke-linecap="round"/>
<path d="M4341.86 4814.38L4639.26 4513.84" stroke="#FFC7C7" stroke-width="6" stroke-miterlimit="10" stroke-linecap="round"/>
<path d="M7543.6 416.567L7495.11 369.478C7495.11 369.478 8014.53 -224.248 8026.76 -236.5C8038.99 -248.752 8400.91 -196.655 8400.91 -196.655L7823.92 411.453C7805.9 430.484 7784.34 445.721 7760.46 456.287C7736.58 466.852 7710.88 472.537 7684.82 473.012C7658.76 473.488 7632.86 468.745 7608.62 459.057C7584.39 449.369 7562.29 434.928 7543.6 416.567V416.567Z" fill="#8785A2"/>
</g>
</g>
<defs>
<clipPath id="clip0_792:2524">
<rect width="8136" height="5197" fill="white"/>
</clipPath>
</defs>
</svg>
