<svg width="2745" height="376" viewBox="0 0 2745 376" fill="none" xmlns="http://www.w3.org/2000/svg">
<rect width="2745" height="376" fill="#DEC1FF"/>
<g clip-path="url(#clip0_817:2652)">
<rect width="1440" height="358" fill="#DEC1FF"/>
<g opacity="0.12">
<path fill-rule="evenodd" clip-rule="evenodd" d="M891.813 30.339C891.608 5.92126 809.498 -21.5372 774.424 -35.6936C705.073 -63.6932 632.944 -89.5494 561.483 -115.819C490.023 -142.088 418.37 -168.286 350.228 -197.126C305.983 -215.847 253.996 -236.932 223.989 -263.664C160.066 -320.631 361.61 -312.172 413.817 -313.418C546.628 -316.601 698.963 -315.148 823.453 -344.814C897.768 -362.524 927.402 -392.226 911.441 -435.514C906.296 -449.592 891.067 -465.792 903.968 -479.507C917.743 -494.155 949.434 -502.607 975.737 -508.276C1071.67 -528.926 1181.98 -531.319 1283.48 -533.911C1392.94 -536.76 1503.42 -535.926 1612.1 -536.147C1658.19 -536.24 1706.31 -545.404 1750.2 -552.853C1807.73 -562.616 1864.58 -573.582 1921.63 -584.185C2047.15 -607.456 2176.49 -631.967 2309.29 -637.877C2392.45 -641.58 2483.35 -636.574 2547.95 -604.366C2580.39 -588.194 2597.37 -564.154 2616.12 -542.798C2638.82 -516.999 2660.62 -490.95 2684.79 -465.557C2762.64 -383.773 2873.79 -303.854 3054.21 -299.838C3081.5 -299.233 3108.3 -301.205 3135.47 -301.576C3152.77 -301.804 3168.16 -299.489 3174.59 -289.47C3190.76 -264.34 3139.94 -224.669 3119.11 -204.731C3073.49 -161.086 3022.04 -119.4 2973.85 -76.6319C2941.96 -48.3475 2886.77 -9.69501 2886.19 24.6707C2885.68 55.2908 2959.25 77.4227 2999.3 92.5049C3036.83 106.626 3104.83 126.386 3108.95 155.112C3110.94 169.041 3094.35 180.584 3077.02 189.542C3046.66 205.208 3011.67 216.26 2984.36 234.134C2939.56 263.458 2902.13 303.805 2908.21 343.319C2912.43 370.699 2940.65 388.63 2976.55 405.77C2991.64 412.976 3003.88 418.075 3004.68 429.775C3005.96 448.353 2992.82 468.014 2981.99 485.24C2943.25 546.886 2888.23 606.495 2827.02 662.153C2796.43 689.967 2763.39 717.696 2722.84 741.423C2696.28 757.004 2660.46 775.547 2619.94 775.525C2573.03 775.525 2523.4 766.154 2477.81 759.147C2392.65 746.052 2308.52 730.913 2224.72 715.382C2030.94 679.449 1838.98 640.607 1648.83 598.855C1514.9 569.395 1378.13 539.893 1252.21 500.728C1227.66 493.037 1204.48 484.069 1182.99 473.946C1160.03 463.314 1131.55 458.557 1102.66 455.011C923.364 433 726.938 449.898 546.898 460.494C501.2 463.179 455.502 465.878 409.675 467.758C370.279 469.374 323.115 474.01 284.825 467.046C209.378 453.338 275.333 402.815 303.218 382.228C401.392 309.744 528.055 248.418 645.458 185.811C701.278 155.995 757.523 126.258 810.308 94.7551C837.794 78.3769 891.993 51.7446 891.813 30.339Z" stroke="white"/>
<path fill-rule="evenodd" clip-rule="evenodd" d="M925.645 26.2226C895.554 0.385 842.759 -18.7121 798.934 -36.6846C735.868 -62.5578 670.82 -86.9932 606.75 -112.133C546.168 -135.907 485.457 -159.951 429.353 -186.949C395.143 -203.412 352.22 -223.1 336.016 -247.45C300.866 -300.228 489.962 -292.221 536.643 -293.602C652.698 -297.018 784.274 -297.801 891.641 -325.589C958.684 -342.942 986.228 -371.72 971.928 -411.672C966.986 -425.495 958.08 -437.296 969.354 -451.048C982.392 -466.963 1012.38 -476.885 1039.87 -483.889C1125.99 -505.833 1227.78 -510.496 1321.13 -514.375C1417.57 -518.382 1518.06 -521.208 1611.39 -518.275C1648.72 -517.108 1691.68 -523.735 1728.62 -528.817C1785.46 -536.646 1841.71 -545.679 1898.27 -554.078C2013.2 -571.161 2131.12 -587.617 2250.69 -589.489C2337.01 -590.841 2427.02 -583.51 2498.84 -555.174C2571.62 -526.439 2603.91 -481.896 2644.27 -439.552C2713.98 -366.346 2808.13 -277.338 2969.4 -261.871C2993.85 -259.522 3017.36 -260.796 3041.78 -260.219C3054.35 -259.927 3068.65 -259.002 3075.02 -252.148C3091.56 -234.353 3046.24 -201.818 3030.99 -188.187C2988.85 -150.52 2941.47 -114.696 2897.31 -77.7543C2862.24 -48.4218 2817.78 -15.8294 2804.22 18.9411C2787.76 61.1355 2895.32 91.1584 2933.14 120.868C2998.72 172.387 2874.48 201.741 2813.23 226.304C2742.89 254.505 2684.83 305.952 2747.88 349.585C2772 366.269 2801.68 376.212 2812.46 397.986C2829.3 432.037 2816.56 470.95 2802.89 504.61C2782.3 555.211 2749.71 605.263 2705.41 650.995C2673.67 683.737 2621.02 735.078 2543.91 731.227C2492 728.658 2439.23 719.269 2388.69 710.97C2313.01 698.549 2238.28 684.392 2163.96 669.687C1992.38 635.834 1822.69 598.509 1656.34 557.453C1542.83 529.43 1226.21 414.912 1202.39 410.826C1131.36 398.655 1050.59 400.797 977.36 402.683C879.942 405.189 783.013 411.68 686.161 417.695C640.059 420.542 593.725 424.023 547.377 425.425C514.39 426.421 471.067 427.275 442.173 416.663C385.774 395.957 448.608 348.581 474.594 328.537C554.199 267.089 654.899 213.876 749.318 159.468C795.652 132.755 842.694 106.084 884.756 77.2288C901.719 65.577 944.243 42.1808 925.645 26.2226Z" stroke="white"/>
<path fill-rule="evenodd" clip-rule="evenodd" d="M967.276 12.9716C885.096 -38.7324 771.671 -77.1864 673.778 -120.368C624.646 -142.048 575.204 -164.319 532.827 -190.142C510.783 -203.57 483.256 -220.551 479.01 -239.269C467.66 -289.342 638.093 -282.571 689.105 -284.472C787.731 -288.16 899.149 -290.958 988.625 -316.511C1043.29 -332.132 1070.21 -357.771 1060 -391.469C1055.47 -406.42 1048.41 -419.122 1060 -433.803C1071.73 -448.676 1096.18 -459.171 1120.94 -467.038C1192.09 -489.665 1280.51 -496.899 1360.62 -502.288C1454.6 -508.566 1549.28 -511.017 1643.9 -509.622C1726.78 -508.419 1809.25 -521.953 1890.17 -530.874C1997.37 -542.686 2106.51 -553.003 2216.2 -551.443C2302.83 -550.205 2390.15 -540.472 2464.21 -514.606C2539.46 -488.262 2584.71 -448.833 2625.5 -406.285C2687.17 -341.965 2764.02 -255.772 2899.31 -231.344C2918.99 -227.784 2937.33 -227.393 2957.62 -226.773C2967.48 -226.474 2980.21 -226.382 2985.1 -220.693C2996.86 -206.995 2953.37 -180.438 2941.24 -171.182C2902.5 -141.635 2860.51 -113.419 2820.81 -84.2635C2783.75 -57.0445 2743.38 -28.6792 2720.36 3.21749C2683.72 54.0173 2800.85 83.7211 2797.57 132.129C2795.53 162.181 2743.52 183.733 2702.34 198.642C2651.64 216.975 2578.64 229.029 2553.26 262.485C2534.35 287.404 2564.02 301.907 2586.86 320.818C2625.57 352.857 2628.21 396.287 2624.18 433.374C2618.75 483.491 2597.53 534.348 2561.4 580.413C2545.04 601.295 2524.99 623.018 2495.47 639.236C2467.81 654.437 2441.64 658.332 2404.68 655.22C2291.53 645.68 2177.3 619.087 2068.8 595.336C1932.48 565.49 1798.04 532.539 1667.62 495.466C1578.68 470.184 1487.74 443.435 1409.68 408.505C1389.33 399.399 1368.5 389.502 1353.62 377.491C1342.37 368.463 1337.6 361.009 1318.64 355.854C1262.46 340.582 1184.31 344.576 1124.11 346.164C1027.85 348.692 932.054 355.42 836.388 361.479C780.563 365.039 675.4 376.238 630.822 349.375C592.345 326.179 638.775 286.628 662.492 266.194C722.486 214.519 799.66 169.166 871.262 122.467C904.077 101.065 938.179 79.499 965.281 55.7047C972.204 49.6386 983.297 41.6003 985.202 34.2313C987.338 25.7873 977.365 19.3438 967.276 12.9716Z" stroke="white"/>
<path fill-rule="evenodd" clip-rule="evenodd" d="M974.341 25.0081C898.404 -20.7077 806.919 -58.2651 725.396 -101.045C688.843 -120.227 651.93 -140.348 624.078 -163.748C609.097 -176.331 593.189 -192.171 597.32 -207.811C609.174 -252.7 749.349 -248.646 805.98 -251.275C890.128 -255.137 986.8 -259.027 1061.2 -283.232C1109.95 -299.085 1128.22 -322.499 1119.12 -352.696C1109.35 -385.088 1131.2 -408.601 1180.9 -426.671C1243.22 -449.308 1321.89 -458.535 1394.25 -465.09C1481.42 -472.95 1569.71 -476.435 1658.02 -475.5C1743.9 -474.588 1827.11 -482.554 1912.43 -487.734C2025.55 -494.596 2142.3 -497.981 2254.15 -483.915C2351.53 -471.667 2439.49 -444.676 2505.42 -402.936C2574.29 -359.372 2608.39 -304.486 2664.31 -256.291C2699.19 -226.229 2747.83 -186.463 2813.01 -174.778C2834.74 -170.88 2874.36 -176.139 2857 -156.965C2847.07 -145.999 2828.5 -136.38 2813.83 -127.416C2790.12 -112.93 2765.63 -98.8436 2741.52 -84.5574C2690.14 -54.104 2635.12 -23.0021 2596.61 13.0589C2548.09 58.4612 2620.22 93.4036 2611.43 139.44C2606.7 164.215 2575.58 183.987 2542.66 199.52C2521.36 209.581 2498.05 218.296 2474.25 226.426C2449.4 234.919 2419.99 241.389 2398.31 252.369C2367.42 267.994 2380.83 286.492 2386.63 306.692C2396.82 342.192 2399.06 378.252 2393.29 414.056C2386.24 457.94 2369.7 503.079 2334.86 542.959C2321.31 558.485 2304.14 574.945 2278.64 585.355C2253.14 595.765 2226.77 595.052 2197.56 591.917C2110.9 582.654 2024.42 561.1 1942.22 540.672C1839.33 515.099 1738.46 486.52 1642.14 454.007C1575.65 431.562 1508.94 407.315 1453.31 376.883C1437.13 368.026 1421.74 358.543 1409.29 347.954C1400.75 340.694 1396.16 331.324 1383.78 325.866C1345.04 308.829 1267.26 313.917 1221.83 314.907C1131.16 316.881 1041.91 326.265 951.354 328.545C901.93 329.792 824.526 332.927 788.231 309.635C754.098 287.739 785.013 253.252 805.413 232.154C845.505 190.671 899.369 153.712 947.647 115.15C967.493 99.282 989.245 82.6801 1002.1 64.5605C1013.53 48.4146 993.801 36.7292 974.341 25.0081Z" stroke="white"/>
<path fill-rule="evenodd" clip-rule="evenodd" d="M993.018 25.756C932.575 -14.4726 859.708 -50.1831 798.827 -91.0663C763.192 -115.009 701.822 -155.259 729.382 -189.012C759.616 -226.103 865.007 -227.114 925.926 -230.102C998.432 -233.659 1083.58 -238.519 1145.63 -261.679C1165.26 -269 1181.97 -278.691 1189.06 -291.455C1196.65 -305.116 1188.35 -317.069 1187.27 -330.745C1185.01 -359.433 1215.95 -382.464 1256.9 -398.281C1314.77 -420.644 1387.13 -431.217 1455.49 -438.588C1532.93 -446.902 1611.65 -451.001 1690.53 -450.826C1765.92 -450.683 1840.51 -451.608 1915.98 -452.676C2014.67 -454.099 2114.74 -451.8 2210.48 -437.293C2304.78 -422.992 2390.52 -396.189 2457.87 -356.764C2523.57 -318.293 2567.9 -271.27 2606.73 -223.371C2628.76 -196.184 2665.98 -155.557 2718.52 -141.825C2741.89 -135.713 2764.82 -136.133 2739.97 -120.238C2708.69 -100.223 2666.52 -84.1647 2630.28 -67.0459C2578 -42.3423 2524.41 -17.155 2480.53 12.216C2452.51 30.9713 2440.02 49.1717 2441.95 73.4554C2443.44 91.9546 2450.21 110.262 2446.79 128.832C2438.77 172.419 2376.75 202.309 2321.91 230.144C2286.64 248.045 2254.42 261.699 2236.26 287.164C2214.79 317.26 2205.77 350.004 2191.42 381.253C2175.65 415.569 2157.44 451.266 2123.03 481.491C2092.39 508.4 2055.14 520.467 1999.38 513.217C1912.4 501.918 1826.67 474.084 1749.46 448.334C1670.87 422.137 1593.63 392.68 1528.51 356.671C1493.35 337.225 1469.35 314.393 1438.13 293.503C1398.85 267.277 1310 277.21 1257.19 279.43C1169.54 283.115 893.724 310.693 919.174 221.371C929.797 184.088 971.631 149.679 1002.23 116.779C1014.91 103.125 1033.26 86.7393 1036.13 71.0933C1039.25 54.0527 1011.19 37.8659 993.018 25.756Z" stroke="white"/>
<path fill-rule="evenodd" clip-rule="evenodd" d="M1024.93 29.172C978.741 -7.28328 923.463 -41.7239 883.83 -81.0979C858.119 -106.597 832.871 -140.668 866.038 -167.648C903.473 -198.095 986.017 -205.192 1046.67 -209.072C1109.16 -213.066 1183.76 -216.426 1234.83 -239.512C1251.08 -246.866 1264.48 -256.782 1266.97 -268.656C1269.38 -280.046 1262.59 -291.436 1264.84 -303.033C1269.88 -329.073 1298.4 -350.529 1335.18 -366.091C1443.98 -412.128 1605.91 -422.365 1737.17 -423.568C1802.88 -424.166 1870.5 -421.027 1936.63 -418.777C2022.44 -415.859 2108.37 -409.594 2190.21 -394.495C2364.21 -362.404 2480.84 -291.23 2562.29 -202.665C2587.92 -174.788 2607.54 -144.626 2647.71 -122.223C2668.42 -110.655 2663.9 -102.347 2642.72 -91.7974C2609.62 -75.3103 2569.24 -62.7101 2532.5 -48.9495C2480.24 -29.38 2426.87 -9.51856 2380.65 13.9236C2348.8 30.0832 2326.18 45.652 2319.32 69.8843C2314.42 87.1616 2315.57 104.766 2312.62 122.15C2307.02 155.174 2287.82 187.949 2253.85 215.342C2226.85 237.055 2194.71 256.788 2161.49 275.603C2118.31 300.099 2081.79 324.986 2049 354.059C2005.52 392.543 1944.43 463.531 1842.02 444.745C1729.07 424.015 1623.21 371.343 1550.74 320.309C1526.41 303.174 1506.43 282.159 1473.61 269.523C1424.48 250.637 1374.62 251.299 1316.18 251.378C1228.69 251.484 1038.3 261.999 1036.24 189.444C1035.43 160.699 1057.91 133.519 1068.67 105.87C1080.8 74.903 1056.48 54.0165 1024.93 29.172Z" stroke="white"/>
<path fill-rule="evenodd" clip-rule="evenodd" d="M1059.33 32.4223C1013.65 -15.0908 911.196 -93.1648 989.117 -145.999C1030.28 -173.921 1103.08 -184.414 1164.15 -190.667C1213.3 -195.724 1272.57 -197.624 1309.7 -219.065C1337 -234.829 1324.88 -257.771 1335.34 -277.505C1348.32 -301.969 1378.11 -321.987 1414.71 -337.033C1517.01 -379.083 1659.24 -391.987 1782.3 -394.733C1910.1 -397.579 2050.92 -384.269 2171.19 -358.666C2321.14 -326.732 2433.48 -266.265 2512.04 -189.692C2526.54 -175.557 2539.71 -161.052 2553.63 -146.746C2562.98 -137.149 2576.84 -127.866 2584.21 -117.771C2596.49 -100.94 2582.03 -87.1821 2558.85 -76.2126C2525.51 -60.4199 2484.56 -49.1802 2446.55 -37.3286C2394.57 -21.1091 2341.43 -5.1813 2293.08 13.8481C2260.59 26.653 2226.58 40.4466 2214.96 62.663C2207.02 77.8154 2205.37 93.8642 2205.66 109.557C2206.27 143.206 2203.08 170.416 2174.71 201.233C2128.02 251.826 2056.22 297.319 1980.37 335.171C1920.84 364.879 1826.65 411.026 1739.92 391.164C1662.1 373.38 1616.58 330.811 1565.31 296.394C1540.38 279.662 1512.38 264.382 1479.48 252.481C1437.99 237.478 1398.94 231.182 1349.8 228.728C1267.08 224.595 1142.35 223.52 1116.78 168.602C1107.34 148.335 1112.73 127.342 1107.77 106.811C1101.3 79.665 1082.38 56.3887 1059.33 32.4223Z" stroke="white"/>
<path fill-rule="evenodd" clip-rule="evenodd" d="M1106.84 34.1817C1074.31 -17.8068 1031.57 -83.3266 1110.14 -129.532C1148.21 -151.916 1201.74 -164.429 1253.56 -173.779C1290.67 -180.481 1349.59 -182.454 1372.34 -203.057C1389.05 -218.219 1391.37 -239.135 1406.48 -255.38C1427.26 -277.714 1458.72 -296.109 1495.64 -310.509C1591.82 -348.034 1717.08 -362.533 1831.31 -366.685C2079.53 -375.694 2332.09 -303.943 2464.91 -185.893C2504.51 -150.705 2555.63 -113.252 2491.63 -77.3016C2421.76 -38.0824 2316.5 -19.7083 2233.1 8.15892C2201.23 18.7988 2160.63 31.5894 2142.85 50.8536C2132.15 62.4335 2131.42 76.9618 2130.93 89.7096C2129.65 122.178 2124.78 151.377 2101.19 181.672C2064.76 228.49 2006.67 271.684 1940.85 307.064C1883.44 337.916 1801.57 374.172 1718.2 351.931C1654.27 334.839 1613.73 298.561 1564.06 271.819C1508.79 242.036 1440.43 221.967 1365.36 212.16C1292.34 202.646 1212.25 196.229 1173.76 155.806C1160.56 141.94 1146.77 123.986 1141.82 108.639C1133.83 83.3348 1122.13 58.4333 1106.84 34.1817Z" stroke="white"/>
<path fill-rule="evenodd" clip-rule="evenodd" d="M1159.81 34.5479C1144.76 -17.9494 1143.09 -72.6895 1213.02 -114.065C1245.66 -133.368 1286.91 -147.082 1328.63 -159.506C1359.32 -168.649 1391.02 -176.36 1413.94 -191.348C1435.18 -205.225 1451.33 -221.338 1471.83 -235.579C1498.88 -254.45 1531.25 -270.787 1567.68 -283.96C1659.02 -316.92 1770.13 -332.335 1876.42 -337.682C1927.88 -340.281 1983.7 -341.634 2034.81 -334.55C2084.17 -327.714 2132.98 -316.906 2178.36 -304.303C2274.84 -277.538 2358.46 -238.341 2419.07 -188.785C2460.64 -154.793 2483.11 -121.741 2429.29 -87.2575C2368.61 -48.3883 2273.46 -26.9422 2195.04 -1.71531C2141.26 15.5868 2080.98 32.5472 2070.93 69.3159C2062.93 98.5729 2056.43 126.342 2035.73 153.997C2004.93 194.788 1959.63 231.739 1902.54 262.658C1850.32 290.826 1784.27 314.728 1709.58 299.683C1650.4 287.743 1604.49 260.992 1552.79 241.867C1495.17 220.506 1431.86 208.73 1365.2 199.26C1305.29 190.715 1248.88 177.586 1210.16 149.71C1202.24 144.014 1193.92 137.812 1187.81 131.44C1180.01 123.308 1180.61 115.248 1179.08 106.135C1175.1 82.0825 1166.62 58.308 1159.81 34.5479Z" stroke="white"/>
<path fill-rule="evenodd" clip-rule="evenodd" d="M1218.22 30.257C1219.5 -19.6076 1241.17 -66.7337 1300.51 -105.594C1325.88 -122.218 1356.17 -135.911 1384.09 -151.144C1406.57 -163.425 1427.81 -174.836 1453.65 -184.955C1514.96 -208.918 1564.79 -239.926 1629.94 -261.264C1716.91 -289.791 1816.54 -305.559 1915.39 -311.864C1963.66 -314.944 2013.52 -316.021 2062.36 -312.541C2104.3 -309.553 2144.47 -299.062 2181.73 -288.329C2254.77 -267.305 2325.68 -237.423 2373.1 -199.618C2477.65 -116.27 2271.52 -55.6725 2165.73 -20.1853C2117.07 -3.86092 2042.72 15.0452 2022.79 47.3802C2008.55 70.4797 1999.87 93.9714 1981.52 116.358C1932.23 176.478 1832.18 247.188 1698.86 237.774C1641.81 233.752 1589.81 217.413 1536.55 206.445C1481.71 195.148 1425.11 188.851 1368.11 181.941C1314.84 175.486 1272.38 166.301 1237.97 141.675C1221.52 129.915 1222.98 115.837 1221.51 101.41C1219.12 77.7112 1217.64 53.8771 1218.22 30.257Z" stroke="white"/>
<path fill-rule="evenodd" clip-rule="evenodd" d="M1271.4 23.87C1292.82 -51.3962 1372.37 -133.566 1489.35 -177.276C1626.94 -228.694 1776 -271.992 1940.4 -284.44C2016.62 -290.211 2100.11 -293.051 2172.03 -274.177C2226.76 -259.823 2290.34 -238.366 2320.46 -208.191C2394.15 -134.384 2230.23 -75.6285 2136.85 -41.4826C2086.57 -23.1002 2022.56 -5.18752 1984.67 21.6566C1962.68 37.2209 1951.46 57.8094 1933.7 74.9037C1879.91 126.706 1791.36 168.488 1681.06 175.961C1630.06 179.412 1578.68 175.142 1528.07 171.748C1476.26 168.275 1423.8 166.389 1372.31 161.542C1331.21 157.671 1282.77 151.116 1267.63 126.77C1248.54 96.0902 1262.66 54.607 1271.4 23.87Z" stroke="white"/>
<path fill-rule="evenodd" clip-rule="evenodd" d="M1323.56 11.779C1354.79 -58.9839 1420.95 -128.009 1532.15 -170.253C1591.12 -192.653 1659.58 -208.117 1725.31 -223.395C1799.81 -240.71 1877.65 -254.15 1957.15 -260.817C2056.14 -269.122 2216.46 -276.607 2268.18 -214.178C2319.51 -152.211 2189.8 -97.3675 2113.09 -66.1136C2063.91 -46.092 2011.28 -27.7157 1964.29 -5.82801C1938.82 6.03823 1919.19 19.7492 1897.63 33.6668C1838.04 72.2285 1753.08 102.756 1666.49 119.052C1582.57 134.85 1478.75 141.845 1390.16 136.624C1351.93 134.38 1324.61 126.809 1313.05 105.284C1297.03 75.3624 1310.64 41.0101 1323.56 11.779Z" stroke="white"/>
<path fill-rule="evenodd" clip-rule="evenodd" d="M1375.38 -7.27977C1406.41 -69.5839 1473.35 -126.49 1570.99 -163.884C1680.43 -205.803 1821.36 -229.096 1950.89 -240.941C2019.75 -247.233 2168.95 -264.291 2204.05 -215.471C2239.14 -166.65 2137.69 -118.539 2079.29 -92.0542C2008.42 -59.9588 1932.02 -28.9699 1855.7 -0.172646C1789.39 24.8653 1718.64 50.4636 1646.82 69.7989C1606.31 80.7676 1564.11 89.7235 1520.73 96.5604C1488.6 101.582 1447.75 109.072 1414.07 105.334C1329.12 95.8937 1360.54 22.5104 1375.38 -7.27977Z" stroke="white"/>
<path fill-rule="evenodd" clip-rule="evenodd" d="M1439.35 -25.9369C1507.44 -143.761 1723.17 -201.709 1930.89 -221.908C1979.16 -226.596 2114.46 -243.5 2141.44 -207.508C2167.59 -172.611 2084.44 -131.225 2045.51 -111.618C1924.89 -50.8592 1775.86 -5.80976 1634.64 38.8199C1590.56 52.7503 1511.06 82.9801 1456.38 69.0355C1397.01 53.8673 1425.24 -1.50546 1439.35 -25.9369Z" stroke="white"/>
<path fill-rule="evenodd" clip-rule="evenodd" d="M1509.09 -48.615C1568.31 -135.384 1740.54 -185.149 1898.89 -201.555C1937.68 -205.569 2036.18 -218.067 2065.56 -193.854C2092.74 -171.455 2027.87 -139 2003.6 -126.103C1949.56 -97.3839 1885.53 -73.7254 1822.26 -50.9851C1763.77 -29.9459 1704.64 -8.38008 1643.1 9.41356C1610.68 18.7801 1549.88 38.766 1513.04 24.3033C1473.38 8.74455 1495.95 -29.3481 1509.09 -48.615Z" stroke="white"/>
<path fill-rule="evenodd" clip-rule="evenodd" d="M-394.872 97.1121C-396.503 41.5236 -449.868 -16.2486 -423.513 -72.8898C-401.872 -119.409 -292.92 -123.293 -227.559 -144.369C-175.62 -161.113 -146.144 -190.774 -118.055 -219.234C-92.8175 -244.784 -70.1486 -271.102 -43.5624 -296.232C-26.3521 -312.479 3.20096 -344.381 40.5243 -344.957C76.2551 -345.512 109.019 -320.652 129.774 -305.956C156.836 -286.801 180.827 -266.379 207.105 -246.918C251.39 -214.091 304.524 -189.793 365.363 -166.796C434.599 -140.63 504.977 -115.357 576.499 -90.9783C629.157 -72.9752 682.175 -55.1072 732.792 -35.3258C764.541 -22.9136 834.616 0.374577 834.938 23.2573C835.091 34.1758 816.403 46.268 803.804 54.9957C782.484 69.7695 758.184 83.2772 733.806 96.4932C688.404 121.111 641.076 144.613 594.261 168.399C533.498 199.27 475.458 229.635 422.042 264.681C366.815 300.958 314.053 338.429 260.213 375.389C223.75 400.427 187.326 428.545 134.732 443.909C68.8572 463.114 14.7858 442.863 -51.8337 442.628C-109.142 442.422 -104.916 368.902 -112.198 348.459C-119.506 327.767 -135.612 308.505 -141.854 287.763C-149.637 261.872 -149.74 235.383 -151.654 209.214C-153.978 177.205 -154.903 146.733 -216.694 134.527C-251.859 127.592 -289.902 126.133 -326.3 121.979C-349.881 119.283 -394.358 114.674 -394.872 97.1121Z" stroke="white"/>
<path fill-rule="evenodd" clip-rule="evenodd" d="M-366.699 87.2233C-372.706 40.6264 -408.195 -19.0142 -374.635 -67.1142C-345.963 -108.219 -256.295 -113.547 -195.916 -135.139C-146.072 -152.949 -123.883 -182.093 -98.9678 -210.723C-78.9786 -233.69 -59.5941 -256.878 -36.9037 -279.112C-20.1818 -295.497 5.35135 -323.158 40.1201 -326.549C71.3772 -329.598 104.898 -305.178 122.443 -292.754C148.041 -274.617 169.934 -254.919 192.547 -235.635C232.281 -201.761 272.966 -171.3 331.12 -146.416C389.531 -121.426 453.434 -102.74 518.02 -83.2923C568.546 -68.0758 618.814 -52.4177 666.819 -34.8504C702.578 -21.7711 753.992 -5.03011 770.353 18.2933C783.307 36.7439 717.615 67.3621 698.243 78.1689C658.368 100.388 616.113 121.247 573.781 141.977C522.174 167.238 468.922 189.329 423.348 218.145C341.835 269.664 273.7 333.821 168.815 372.112C105.554 395.207 35.1549 401.113 -35.2058 397.658C-63.0671 396.29 -69.7558 374.512 -73.2674 361.811C-79.1072 340.71 -79.8404 319.246 -84.3296 298.06C-88.5358 278.227 -97.8744 259.384 -105.399 239.936C-113.014 220.232 -115.149 200.043 -120.758 180.203C-124.231 167.886 -127.665 153.553 -142.856 143.651C-158.575 133.4 -184.507 129.104 -207.171 125.841C-249.735 119.772 -362.454 120.107 -366.699 87.2233Z" stroke="white"/>
<path fill-rule="evenodd" clip-rule="evenodd" d="M-330.438 67.7171C-340.54 24.9447 -354.684 -28.3287 -313.527 -67.736C-279.887 -99.9576 -208.14 -106.909 -156.893 -127.903C-114.27 -145.362 -98.1702 -173.13 -77.0128 -198.935C-59.652 -220.1 -42.201 -241.358 -21.1595 -261.5C-5.20141 -276.774 15.364 -297.485 47.0485 -302.814C74.1387 -307.367 104.742 -286.97 119.761 -276.817C145.332 -259.515 166.181 -240.128 186.888 -220.997C220.76 -189.693 251.93 -156.255 300.139 -130.792C346.983 -106.083 402.631 -91.4985 459.321 -75.0995C502.742 -62.5353 545.893 -49.4873 586.805 -34.5041C618.22 -23.0071 657.15 -9.3828 673.52 9.74811C687.676 26.2467 651.333 45.776 633.174 57.4153C603.188 76.6245 569.908 94.2471 537.091 111.941C501.674 131.029 462.448 148.638 428.177 168.195C356.108 209.353 298.53 254.921 209.705 286.453C152.179 306.878 74.7692 325.433 6.76716 322.096C-42.1367 319.692 -38.9193 259.773 -43.6166 240.628C-51.3383 209.324 -66.254 176.434 -89.9466 147.599C-110.293 122.89 -158.644 115.27 -203.12 109.728C-230.983 106.249 -260.183 104.371 -287.132 98.9925C-318.328 92.7602 -326.204 85.6457 -330.438 67.7171Z" stroke="white"/>
<path fill-rule="evenodd" clip-rule="evenodd" d="M-296.614 47.6682C-302.629 11.5062 -301.277 -31.2558 -262.314 -62.5372C-228.168 -89.9369 -167.373 -97.1508 -124.133 -118.735C-90.3869 -135.575 -77.133 -163.031 -58.9846 -185.301C-36.8047 -212.529 -5.72435 -262.819 50.2279 -273.066C102.277 -282.591 156.71 -221.741 175.554 -203.596C205.385 -174.876 230.334 -143.381 266.515 -116.859C297.672 -94.0255 339.417 -81.4031 383.726 -67.8388C440.219 -50.5142 525.989 -29.9715 556.194 3.79296C578.709 28.9522 505.497 66.3557 480.496 83.7873C454.349 101.997 434.655 123.581 407.67 141.148C365.088 168.869 296.088 191.189 239.118 208.221C183.733 224.789 111.809 243.127 48.9785 242.035C7.68409 241.322 -0.172915 206.016 -8.98308 188.77C-21.6058 164.253 -38.3889 142.283 -74.441 125.608C-111.137 108.633 -154.389 100.634 -199.857 93.6341C-223.196 90.0664 -249.82 87.2836 -270.699 80.0769C-293.768 72.2352 -294.296 61.5678 -296.614 47.6682Z" stroke="white"/>
<path fill-rule="evenodd" clip-rule="evenodd" d="M-255.403 26.8246C-255.069 -4.41667 -242.166 -37.7312 -203.907 -61.8295C-172.042 -81.902 -122.164 -88.6118 -91.6596 -109.132C-67.4973 -125.377 -55.198 -148.183 -39.0213 -167.049C-19.2371 -190.167 8.7382 -230.554 57.9357 -238.577C105.952 -246.387 148.422 -201.904 166.833 -184.302C193.794 -158.493 215.619 -131.135 242.824 -105.397C264.136 -85.2037 290.199 -72.1889 324.901 -59.1741C365.638 -43.8872 422.475 -26.953 444.236 -1.66177C459.925 16.6499 421.948 45.9101 408.16 62.0419C398.916 72.877 390.455 83.8824 385.808 95.6263C382.187 104.771 381.828 113.235 371.339 121.088C344.93 140.841 287.027 143.418 247.741 149.929C195.565 158.57 140.205 168.39 85.6028 170.264C52.0428 171.436 34.9161 154.317 15.7609 142.275C-6.87349 128.039 -38.9186 117.8 -66.9068 107.058C-103.843 92.8572 -144.041 84.0244 -185.625 74.9787C-204.382 70.896 -226.413 66.8914 -240.947 58.7758C-256.122 50.362 -255.518 38.0998 -255.403 26.8246Z" stroke="white"/>
<path fill-rule="evenodd" clip-rule="evenodd" d="M-212.119 8.27816C-205.488 -17.9603 -184.822 -43.038 -149.917 -61.5865C-123.16 -75.8272 -87.6248 -83.8447 -66.1496 -100.955C-46.1396 -116.904 -32.1955 -135.04 -15.6682 -152.093C1.82293 -170.122 27.809 -200.255 68.1505 -205.161C111.628 -210.444 145.119 -180.047 163.664 -163.201C187.093 -141.911 204.892 -119.005 225.841 -96.9817C241.622 -80.5669 261.753 -65.5544 285.562 -52.444C310.533 -38.6235 344.397 -25.3868 357.031 -6.38261C368.199 10.4499 347.302 30.814 343.613 47.8814C339.668 66.1166 346.582 85.2703 324.709 100.928C279.599 133.219 166.389 127.23 101.668 127.921C37.8077 128.633 -13.5348 108.874 -65.2115 90.0765C-99.3455 77.6658 -134.893 67.1561 -169.888 55.5927C-205.565 43.7943 -217.954 31.3694 -212.119 8.27816Z" stroke="white"/>
<path fill-rule="evenodd" clip-rule="evenodd" d="M-171.904 -6.73966C-152.293 -44.7516 -91.0438 -64.9548 -47.2573 -93.681C-11.4308 -117.198 15.4326 -165.899 75.7692 -172.342C144.272 -179.653 185.28 -115.124 209.096 -90.2247C235.522 -62.6102 282.588 -40.1479 302.16 -10.9157C312.448 4.42733 303.613 18.7441 298.135 34.08C292.13 50.9195 287.616 68.1368 266.887 81.6911C226.083 108.365 146.393 108.18 89.0016 108.914C29.5909 109.676 -22.9658 91.3971 -70.3015 73.1537C-120.505 53.8342 -191.991 32.2414 -171.904 -6.73966Z" stroke="white"/>
<path fill-rule="evenodd" clip-rule="evenodd" d="M-139.058 -17.0472C-116.961 -44.1295 -70.5247 -66.1467 -32.8448 -86.9313C-1.39521 -104.259 32.4377 -139.141 80.3892 -141.627C136.747 -144.56 170.904 -107.312 193.079 -84.4732C214.905 -62.0309 246.354 -38.3348 258.439 -13.7036C271.042 11.9549 237.482 46.5109 205.475 64.6673C169.777 84.9135 111.372 92.3942 61.2578 91.5866C8.78577 90.7649 -39.36 74.0324 -79.0994 56.6764C-121.585 38.1233 -164.757 14.3918 -139.058 -17.0472Z" stroke="white"/>
<path fill-rule="evenodd" clip-rule="evenodd" d="M-108.581 -22.1459C-87.4728 -44.6712 -50.8842 -63.726 -17.148 -80.7229C8.88669 -93.8449 47.3034 -116.157 84.8644 -116.704C126.185 -117.307 161.205 -98.5784 177.632 -79.3816C193.826 -60.4473 210.889 -36.7085 213.313 -15.9362C218.577 29.2988 111.405 79.97 30.928 75.8467C-45.3738 71.9364 -150.667 22.7343 -108.581 -22.1459Z" stroke="white"/>
<path fill-rule="evenodd" clip-rule="evenodd" d="M-80.3944 -24.6297C-51.275 -53.9783 19.4565 -95.8187 84.9394 -96.8124C160.103 -97.948 178.972 -51.3877 169.174 -17.6457C159.222 16.7919 72.5634 66.6384 3.46479 59.9028C-63.975 53.3304 -114.905 10.1769 -80.3944 -24.6297Z" stroke="white"/>
<path fill-rule="evenodd" clip-rule="evenodd" d="M-50.634 -29.3751C-25.9796 -53.9482 26.6311 -84.6415 81.5028 -85.5705C146.884 -86.6697 145.651 -47.3599 130.824 -22.8932C115.407 2.50965 47.5083 45.8973 -9.74028 39.0466C-65.4086 32.359 -74.2606 -5.82321 -50.634 -29.3751Z" stroke="white"/>
<path fill-rule="evenodd" clip-rule="evenodd" d="M-24.7133 -32.2031C-8.43969 -49.7372 32.2894 -71.8982 71.0085 -72.6073C118.335 -73.4597 109.135 -42.2809 96.9072 -27.2323C82.373 -9.32582 33.6553 21.7885 -7.22849 16.746C-47.4809 11.7823 -38.1394 -17.7562 -24.7133 -32.2031Z" stroke="white"/>
</g>
</g>
<defs>
<clipPath id="clip0_817:2652">
<rect width="2745" height="376" fill="white"/>
</clipPath>
</defs>
</svg>
