<svg width="1440" height="890" viewBox="0 0 1440 890" fill="none" xmlns="http://www.w3.org/2000/svg">
<g clip-path="url(#clip0_604:2360)">
<rect x="-1" y="469" width="1440" height="358" fill="#DEC1FF"/>
<g opacity="0.12">
<path fill-rule="evenodd" clip-rule="evenodd" d="M512.97 502.97C512.851 475.63 465.53 444.885 445.316 429.034C405.347 397.684 363.778 368.733 322.594 339.32C281.41 309.907 240.115 280.574 200.843 248.282C175.344 227.321 145.383 203.712 128.089 173.781C91.2489 109.995 207.403 119.467 237.491 118.072C314.032 114.508 401.826 116.134 473.572 82.9182C516.402 63.0888 533.481 29.8326 524.282 -18.6364C521.317 -34.3994 512.54 -52.5385 519.975 -67.8948C527.914 -84.2957 546.178 -93.7598 561.337 -100.106C616.627 -123.229 680.197 -125.908 738.696 -128.81C801.777 -131.999 865.451 -131.066 928.087 -131.314C954.646 -131.417 982.384 -141.679 1007.68 -150.019C1040.83 -160.95 1073.59 -173.229 1106.48 -185.101C1178.82 -211.157 1253.36 -238.601 1329.89 -245.219C1377.82 -249.365 1430.2 -243.759 1467.44 -207.697C1486.13 -189.59 1495.92 -162.672 1506.72 -138.761C1519.81 -109.874 1532.37 -80.7077 1546.3 -52.2753C1591.17 39.2968 1655.23 128.78 1759.2 133.277C1774.93 133.955 1790.38 131.746 1806.03 131.331C1816 131.076 1824.88 133.668 1828.58 144.886C1837.9 173.023 1808.61 217.442 1796.61 239.767C1770.31 288.635 1740.66 335.31 1712.89 383.197C1694.51 414.866 1662.71 458.145 1662.37 496.623C1662.08 530.908 1704.48 555.689 1727.56 572.576C1749.19 588.387 1788.38 610.512 1790.75 642.676C1791.9 658.272 1782.34 671.196 1772.35 681.227C1754.85 698.768 1734.69 711.142 1718.94 731.155C1693.13 763.988 1671.56 809.164 1675.06 853.408C1677.49 884.065 1693.76 904.141 1714.45 923.333C1723.14 931.401 1730.2 937.11 1730.66 950.21C1731.4 971.012 1723.82 993.026 1717.58 1012.31C1695.25 1081.34 1663.54 1148.08 1628.27 1210.4C1610.64 1241.54 1591.6 1272.59 1568.23 1299.16C1552.92 1316.6 1532.27 1337.36 1508.93 1337.34C1481.89 1337.34 1453.29 1326.85 1427.01 1319C1377.93 1304.34 1329.45 1287.39 1281.15 1270C1169.47 1229.77 1058.84 1186.28 949.257 1139.53C872.07 1106.54 793.245 1073.51 720.677 1029.66C706.524 1021.04 693.166 1011 680.782 999.668C667.551 987.764 651.132 982.438 634.484 978.467C531.153 953.822 417.949 972.742 314.188 984.606C287.851 987.612 261.515 990.634 235.104 992.739C212.399 994.549 185.218 999.74 163.15 991.942C119.669 976.593 157.68 920.024 173.75 896.973C230.33 815.814 303.329 747.149 370.99 677.049C403.161 643.665 435.576 610.369 465.997 575.095C481.837 556.757 513.074 526.937 512.97 502.97Z" stroke="white"/>
<path fill-rule="evenodd" clip-rule="evenodd" d="M532.468 498.361C515.126 469.431 484.699 448.049 459.442 427.925C423.096 398.955 385.607 371.596 348.682 343.447C313.768 316.828 278.779 289.906 246.445 259.677C226.729 241.244 201.991 219.199 192.653 191.935C172.395 132.84 281.375 141.806 308.279 140.26C375.163 136.434 450.993 135.558 512.871 104.444C551.51 85.0141 567.383 52.7928 559.142 8.05899C556.294 -7.41811 551.161 -20.6318 557.659 -36.0292C565.173 -53.8494 582.456 -64.9592 598.3 -72.8013C647.931 -97.3718 706.597 -102.592 760.397 -106.935C815.977 -111.422 873.887 -114.586 927.679 -111.303C949.19 -109.996 973.95 -117.416 995.239 -123.106C1027.99 -131.873 1060.42 -141.986 1093.01 -151.39C1159.25 -170.518 1227.21 -188.943 1296.12 -191.039C1345.87 -192.554 1397.74 -184.345 1439.13 -152.618C1481.08 -120.444 1499.69 -70.5699 1522.95 -23.1583C1563.12 58.8098 1617.38 158.471 1710.33 175.789C1724.42 178.419 1737.96 176.992 1752.04 177.638C1759.28 177.964 1767.52 179 1771.2 186.675C1780.73 206.599 1754.61 243.029 1745.82 258.291C1721.53 300.466 1694.23 340.578 1668.78 381.94C1648.57 414.783 1622.95 451.276 1615.13 490.208C1605.64 537.452 1667.63 571.068 1689.43 604.334C1727.22 662.018 1655.62 694.885 1620.32 722.389C1579.78 753.964 1546.32 811.569 1582.66 860.423C1596.56 879.104 1613.67 890.238 1619.88 914.617C1629.59 952.744 1622.24 996.314 1614.36 1034C1602.5 1090.66 1583.72 1146.7 1558.18 1197.91C1539.89 1234.57 1509.55 1292.05 1465.11 1287.74C1435.19 1284.86 1404.78 1274.35 1375.65 1265.06C1332.04 1251.15 1288.97 1235.3 1246.13 1218.84C1147.25 1180.93 1049.45 1139.14 953.581 1093.17C888.165 1061.79 705.692 933.569 691.962 928.994C651.024 915.366 604.479 917.765 562.272 919.877C506.129 922.682 450.266 929.951 394.449 936.685C367.879 939.873 341.176 943.77 314.465 945.34C295.453 946.456 270.486 947.412 253.833 935.53C221.329 912.346 257.542 859.3 272.518 836.857C318.396 768.055 376.432 708.474 430.847 647.553C457.551 617.643 484.662 587.781 508.903 555.472C518.679 542.425 543.187 516.229 532.468 498.361Z" stroke="white"/>
<path fill-rule="evenodd" clip-rule="evenodd" d="M556.46 483.524C509.098 425.632 443.729 382.576 387.312 334.226C358.996 309.952 330.501 285.016 306.079 256.102C293.374 241.067 277.51 222.054 275.063 201.096C268.521 145.029 366.746 152.61 396.145 150.482C452.985 146.352 517.197 143.22 568.764 114.608C600.27 97.118 615.785 68.4112 609.896 30.6801C607.286 13.9391 603.222 -0.282687 609.896 -16.7208C616.66 -33.3741 630.752 -45.1247 645.021 -53.9336C686.027 -79.2683 736.986 -87.3678 783.154 -93.4026C837.314 -100.431 891.88 -103.176 946.414 -101.614C994.176 -100.266 1041.71 -115.421 1088.34 -125.41C1150.12 -138.635 1213.02 -150.186 1276.24 -148.441C1326.17 -147.053 1376.49 -136.156 1419.17 -107.194C1462.54 -77.6979 1488.62 -33.5495 1512.13 14.0906C1547.67 86.1088 1591.96 182.617 1669.93 209.968C1681.27 213.954 1691.84 214.393 1703.54 215.086C1709.22 215.421 1716.55 215.525 1719.37 221.894C1726.15 237.232 1701.09 266.967 1694.1 277.331C1671.77 310.414 1647.57 342.007 1624.69 374.652C1603.33 405.128 1580.07 436.889 1566.8 472.603C1545.68 529.482 1613.19 562.741 1611.3 616.942C1610.12 650.591 1580.15 674.722 1556.42 691.416C1527.19 711.943 1485.12 725.44 1470.5 762.9C1459.6 790.801 1476.7 807.04 1489.86 828.213C1512.17 864.087 1513.69 912.716 1511.37 954.241C1508.24 1010.36 1496.01 1067.3 1475.19 1118.88C1465.76 1142.26 1454.2 1166.58 1437.19 1184.74C1421.25 1201.76 1406.16 1206.12 1384.86 1202.64C1319.66 1191.96 1253.82 1162.18 1191.29 1135.59C1112.73 1102.17 1035.25 1065.27 960.083 1023.76C908.827 995.456 856.414 965.506 811.426 926.395C799.7 916.199 787.693 905.118 779.119 891.67C772.637 881.561 769.886 873.215 758.961 867.443C726.581 850.343 681.54 854.816 646.846 856.593C591.37 859.423 536.161 866.957 481.027 873.741C448.854 877.727 388.246 890.267 362.555 860.189C340.38 834.216 367.139 789.932 380.807 767.053C415.383 709.193 459.86 658.412 501.126 606.124C520.038 582.161 539.692 558.014 555.311 531.372C559.301 524.58 565.694 515.579 566.792 507.328C568.023 497.874 562.275 490.659 556.46 483.524Z" stroke="white"/>
<path fill-rule="evenodd" clip-rule="evenodd" d="M560.532 497.001C516.768 445.814 464.044 403.762 417.06 355.862C395.994 334.385 374.721 311.855 358.669 285.655C350.035 271.565 340.866 253.83 343.247 236.318C350.079 186.057 430.865 190.596 463.502 187.652C511.999 183.328 567.713 178.972 610.594 151.871C638.684 134.12 649.217 107.904 643.973 74.0929C638.343 37.8247 650.931 11.4973 679.578 -8.73507C715.494 -34.0813 760.831 -44.4129 802.533 -51.7527C852.775 -60.5535 903.654 -64.4547 954.55 -63.4086C1004.05 -62.3874 1052 -71.3069 1101.17 -77.1069C1166.37 -84.7898 1233.65 -88.5794 1298.11 -72.8307C1354.23 -59.1164 1404.93 -28.8956 1442.93 17.8398C1482.62 66.6175 1502.27 128.072 1534.5 182.036C1554.6 215.695 1582.63 260.221 1620.19 273.305C1632.72 277.669 1655.55 271.781 1645.55 293.25C1639.83 305.528 1629.12 316.298 1620.67 326.335C1607 342.554 1592.89 358.327 1579 374.323C1549.38 408.421 1517.67 443.245 1495.48 483.622C1467.52 534.458 1509.08 573.582 1504.02 625.128C1501.3 652.868 1483.36 675.007 1464.39 692.399C1452.11 703.664 1438.68 713.421 1424.96 722.524C1410.64 732.034 1393.69 739.278 1381.2 751.572C1363.39 769.068 1371.12 789.779 1374.46 812.397C1380.34 852.145 1381.63 892.522 1378.3 932.61C1374.24 981.747 1364.71 1032.29 1344.63 1076.94C1336.82 1094.33 1326.92 1112.75 1312.23 1124.41C1297.53 1136.07 1282.34 1135.27 1265.5 1131.76C1215.55 1121.39 1165.71 1097.25 1118.34 1074.38C1059.04 1045.75 1000.91 1013.75 945.396 977.343C907.077 952.212 868.631 925.063 836.572 890.989C827.248 881.072 818.377 870.453 811.204 858.598C806.278 850.468 803.638 839.977 796.502 833.866C774.175 814.79 729.35 820.487 703.166 821.596C650.909 823.806 599.475 834.313 547.284 836.866C518.801 838.262 474.191 841.772 453.273 815.692C433.602 791.175 451.419 752.562 463.176 728.939C486.282 682.491 517.324 641.108 545.148 597.931C556.586 580.164 569.122 561.575 576.532 541.287C583.119 523.209 571.748 510.125 560.532 497.001Z" stroke="white"/>
<path fill-rule="evenodd" clip-rule="evenodd" d="M571.296 497.839C536.462 452.795 494.467 412.811 459.38 367.035C438.843 340.227 403.474 295.16 419.357 257.366C436.782 215.836 497.521 214.705 532.63 211.359C574.417 207.376 623.489 201.935 659.25 176.004C670.561 167.806 680.196 156.955 684.28 142.663C688.652 127.367 683.872 113.983 683.249 98.6716C681.945 66.5503 699.777 40.7623 723.376 23.0525C756.729 -1.98653 798.434 -13.8249 837.827 -22.0783C882.457 -31.3873 927.828 -35.9767 973.29 -35.7809C1016.74 -35.6216 1059.72 -36.6572 1103.22 -37.8522C1160.09 -39.4455 1217.77 -36.8723 1272.94 -20.6284C1327.29 -4.6155 1376.71 25.3947 1415.52 69.5377C1453.39 112.613 1478.94 165.264 1501.31 218.896C1514.01 249.336 1535.46 294.825 1565.74 310.201C1579.21 317.044 1592.42 316.574 1578.1 334.372C1560.07 356.782 1535.77 374.762 1514.88 393.93C1484.75 421.59 1453.87 449.792 1428.58 482.678C1412.43 503.678 1405.23 524.057 1406.35 551.247C1407.21 571.96 1411.1 592.458 1409.13 613.251C1404.51 662.054 1368.77 695.522 1337.17 726.687C1316.83 746.731 1298.27 762.019 1287.8 790.532C1275.43 824.23 1270.23 860.893 1261.96 895.882C1252.87 934.305 1242.38 974.274 1222.54 1008.12C1204.89 1038.25 1183.42 1051.76 1151.28 1043.64C1101.16 1030.99 1051.75 999.823 1007.25 970.991C961.957 941.658 917.443 908.677 879.91 868.358C859.647 846.585 845.817 821.02 827.821 797.63C805.186 768.265 753.979 779.386 723.547 781.872C673.029 785.999 514.071 816.877 528.739 716.865C534.861 675.119 558.971 636.593 576.603 599.755C583.911 584.467 594.487 566.12 596.14 548.602C597.941 529.522 581.769 511.398 571.296 497.839Z" stroke="white"/>
<path fill-rule="evenodd" clip-rule="evenodd" d="M589.688 501.663C563.068 460.845 531.21 422.283 508.369 378.196C493.551 349.645 479 311.497 498.115 281.288C519.69 247.197 567.262 239.25 602.217 234.906C638.231 230.434 681.225 226.672 710.66 200.823C720.025 192.589 727.745 181.486 729.182 168.191C730.568 155.437 726.656 142.684 727.953 129.7C730.857 100.543 747.297 76.519 768.494 59.0949C831.195 7.54797 924.517 -3.91401 1000.17 -5.26107C1038.04 -5.93062 1077.01 -2.4155 1115.12 0.103262C1164.57 3.37127 1214.1 10.3855 1261.26 27.2915C1361.54 63.2237 1428.76 142.915 1475.7 242.08C1490.47 273.293 1501.78 307.065 1524.93 332.149C1536.87 345.102 1534.26 354.404 1522.06 366.216C1502.98 384.677 1479.71 398.785 1458.53 414.192C1428.42 436.104 1397.65 458.342 1371.02 484.59C1352.66 502.684 1339.63 520.116 1335.67 547.248C1332.85 566.593 1333.51 586.305 1331.81 605.769C1328.58 642.746 1317.52 679.443 1297.94 710.115C1282.38 734.426 1263.86 756.521 1244.71 777.587C1219.83 805.015 1198.78 832.88 1179.88 865.433C1154.82 908.523 1119.61 988.007 1060.6 966.973C995.501 943.762 934.489 884.786 892.725 827.644C878.7 808.458 867.187 784.928 848.272 770.78C819.956 749.634 791.224 750.375 757.543 750.463C707.119 750.582 597.394 762.355 596.208 681.117C595.741 648.931 608.692 618.499 614.893 587.54C621.887 552.868 607.87 529.481 589.688 501.663Z" stroke="white"/>
<path fill-rule="evenodd" clip-rule="evenodd" d="M609.516 505.303C583.185 452.103 524.141 364.685 569.048 305.528C592.77 274.264 634.727 262.516 669.924 255.514C698.249 249.851 732.408 247.724 753.809 223.717C769.539 206.066 762.556 180.379 768.583 158.283C776.062 130.891 793.231 108.477 814.328 91.6306C873.283 44.5484 955.256 30.0995 1026.18 27.025C1099.83 23.8389 1180.99 38.7417 1250.3 67.4085C1336.72 103.164 1401.46 170.868 1446.74 256.606C1455.1 272.432 1462.69 288.673 1470.71 304.691C1476.1 315.436 1484.09 325.831 1488.34 337.134C1495.41 355.979 1487.08 371.384 1473.72 383.666C1454.5 401.349 1430.9 413.934 1409 427.204C1379.04 445.365 1348.42 463.199 1320.55 484.505C1301.83 498.843 1282.23 514.287 1275.52 539.163C1270.95 556.128 1270 574.098 1270.17 591.669C1270.52 629.344 1268.68 659.811 1252.33 694.316C1225.42 750.965 1184.04 801.902 1140.33 844.285C1106.02 877.548 1051.74 929.218 1001.75 906.979C956.901 887.066 930.667 839.402 901.119 800.867C886.753 782.133 870.615 765.023 851.652 751.698C827.746 734.899 805.24 727.85 776.915 725.102C729.242 720.474 657.359 719.271 642.622 657.78C637.181 635.087 640.287 611.582 637.433 588.595C633.704 558.199 622.8 532.137 609.516 505.303Z" stroke="white"/>
<path fill-rule="evenodd" clip-rule="evenodd" d="M636.895 507.273C618.145 449.062 593.513 375.701 638.799 323.965C660.735 298.903 691.589 284.892 721.452 274.422C742.839 266.919 776.798 264.71 789.91 241.641C799.541 224.664 800.874 201.245 809.586 183.056C821.558 158.049 839.693 137.452 860.969 121.329C916.396 79.3134 988.588 63.0782 1054.42 58.4294C1197.48 48.3422 1343.03 128.681 1419.58 260.859C1442.4 300.258 1471.86 342.194 1434.98 382.447C1394.71 426.36 1334.04 446.933 1285.98 478.135C1267.62 490.049 1244.21 504.37 1233.97 525.94C1227.8 538.906 1227.38 555.173 1227.1 569.446C1226.36 605.8 1223.55 638.493 1209.96 672.415C1188.96 724.836 1155.49 773.199 1117.55 812.814C1084.46 847.358 1037.28 887.953 989.233 863.05C952.392 843.913 929.027 803.293 900.402 773.35C868.547 740.003 829.151 717.532 785.887 706.552C743.802 695.899 697.642 688.714 675.462 643.453C667.854 627.928 659.905 607.825 657.053 590.641C652.448 562.308 645.707 534.427 636.895 507.273Z" stroke="white"/>
<path fill-rule="evenodd" clip-rule="evenodd" d="M667.424 507.682C658.75 448.902 657.786 387.611 698.088 341.283C716.897 319.67 740.673 304.315 764.716 290.404C782.406 280.167 800.674 271.533 813.885 254.751C826.126 239.213 835.43 221.172 847.248 205.227C862.837 184.097 881.489 165.805 902.489 151.055C955.127 114.151 1019.16 96.8905 1080.42 90.9033C1110.08 87.9934 1142.25 86.4786 1171.7 94.4111C1200.15 102.065 1228.28 114.167 1254.43 128.278C1310.04 158.246 1358.23 202.134 1393.16 257.621C1417.12 295.681 1430.07 332.689 1399.05 371.299C1364.08 414.82 1309.24 438.833 1264.05 467.079C1233.05 486.452 1198.31 505.442 1192.52 546.612C1187.91 579.37 1184.16 610.462 1172.24 641.427C1154.48 687.1 1128.38 728.474 1095.47 763.093C1065.38 794.632 1027.31 821.395 984.264 804.549C950.16 791.18 923.7 761.227 893.903 739.814C860.697 715.897 824.213 702.71 785.794 692.107C751.267 682.54 718.757 667.839 696.442 636.627C691.875 630.249 687.078 623.306 683.556 616.17C679.063 607.066 679.412 598.041 678.53 587.837C676.231 560.906 671.346 534.286 667.424 507.682Z" stroke="white"/>
<path fill-rule="evenodd" clip-rule="evenodd" d="M701.085 502.878C701.826 447.046 714.312 394.279 748.512 350.768C763.132 332.155 780.591 316.823 796.68 299.767C809.633 286.016 821.875 273.24 836.77 261.909C872.103 235.079 900.818 200.359 938.367 176.467C988.491 144.526 1045.91 126.871 1102.88 119.812C1130.7 116.363 1159.44 115.157 1187.58 119.054C1211.75 122.4 1234.9 134.146 1256.38 146.163C1298.47 169.704 1339.34 203.162 1366.67 245.491C1426.92 338.814 1308.13 406.664 1247.15 446.399C1219.11 464.677 1176.26 485.846 1164.78 522.051C1156.57 547.915 1151.57 574.218 1140.99 599.283C1112.59 666.599 1054.93 745.772 978.087 735.231C945.207 730.728 915.239 712.434 884.545 700.152C852.94 687.504 820.319 680.453 787.468 672.715C756.767 665.489 732.298 655.204 712.467 627.631C702.989 614.463 703.827 598.7 702.982 582.546C701.604 556.012 700.751 529.325 701.085 502.878Z" stroke="white"/>
<path fill-rule="evenodd" clip-rule="evenodd" d="M731.736 495.727C744.08 411.453 789.928 319.449 857.341 270.507C936.639 212.935 1022.55 164.455 1117.29 150.518C1161.22 144.056 1209.33 140.877 1250.78 162.009C1282.33 178.081 1318.97 202.106 1336.33 235.892C1378.8 318.533 1284.33 384.32 1230.51 422.553C1201.53 443.135 1164.64 463.192 1142.8 493.248C1130.13 510.675 1123.66 533.728 1113.43 552.868C1082.43 610.87 1031.4 657.653 967.828 666.02C938.435 669.885 908.827 665.104 879.657 661.303C849.797 657.414 819.565 655.302 789.891 649.876C766.203 645.541 738.286 638.202 729.562 610.942C718.56 576.59 726.699 530.142 731.736 495.727Z" stroke="white"/>
<path fill-rule="evenodd" clip-rule="evenodd" d="M761.792 482.189C779.796 402.957 817.92 325.671 882.011 278.371C915.998 253.289 955.452 235.976 993.331 218.869C1036.27 199.482 1081.13 184.433 1126.95 176.968C1184 167.67 1276.39 159.288 1306.2 229.189C1335.78 298.572 1261.03 359.979 1216.82 394.974C1188.48 417.392 1158.14 437.967 1131.06 462.474C1116.38 475.761 1105.07 491.113 1092.64 506.696C1058.3 549.873 1009.34 584.054 959.433 602.301C911.066 619.989 851.232 627.821 800.177 621.975C778.147 619.463 762.401 610.985 755.739 586.885C746.507 553.382 754.35 514.918 761.792 482.189Z" stroke="white"/>
<path fill-rule="evenodd" clip-rule="evenodd" d="M791.659 460.849C809.544 391.088 848.121 327.371 904.391 285.502C967.468 238.566 1048.69 212.485 1123.34 199.222C1163.02 192.178 1249.01 173.078 1269.24 227.741C1289.46 282.405 1230.99 336.274 1197.34 365.929C1156.5 401.865 1112.46 436.563 1068.48 468.807C1030.26 496.841 989.486 525.503 948.094 547.152C924.749 559.434 900.431 569.462 875.427 577.117C856.912 582.74 833.369 591.126 813.958 586.941C764.997 576.37 783.105 494.204 791.659 460.849Z" stroke="white"/>
<path fill-rule="evenodd" clip-rule="evenodd" d="M828.525 439.959C867.767 308.033 992.099 243.15 1111.81 220.534C1139.63 215.285 1217.61 196.357 1233.16 236.658C1248.23 275.731 1200.31 322.069 1177.87 344.024C1108.35 412.054 1022.46 462.495 941.076 512.466C915.672 528.063 869.855 561.911 838.343 546.298C804.128 529.314 820.395 467.314 828.525 439.959Z" stroke="white"/>
<path fill-rule="evenodd" clip-rule="evenodd" d="M868.721 414.567C902.848 317.413 1002.11 261.692 1093.37 243.323C1115.72 238.828 1172.49 224.834 1189.42 251.945C1205.09 277.025 1167.7 313.365 1153.71 327.805C1122.57 359.961 1085.67 386.451 1049.21 411.913C1015.5 435.47 981.421 459.617 945.949 479.54C927.266 490.028 892.225 512.405 870.994 496.212C848.136 478.791 861.144 436.139 868.721 414.567Z" stroke="white"/>
<path fill-rule="evenodd" clip-rule="evenodd" d="M-228.573 577.735C-229.513 515.493 -260.268 450.807 -245.079 387.387C-232.607 335.3 -169.816 330.951 -132.147 307.353C-102.213 288.605 -85.2258 255.393 -69.0376 223.528C-54.4927 194.92 -41.4281 165.452 -26.106 137.314C-16.1873 119.124 0.844709 83.4035 22.3549 82.7584C42.9473 82.1371 61.8298 109.973 73.7914 126.427C89.3875 147.875 103.214 170.74 118.359 192.531C143.881 229.286 174.503 256.493 209.566 282.241C249.468 311.54 290.029 339.837 331.248 367.133C361.596 387.291 392.152 407.297 421.323 429.446C439.621 443.344 480.006 469.419 480.192 495.041C480.28 507.266 469.51 520.805 462.249 530.578C449.961 547.12 435.957 562.244 421.908 577.042C395.742 604.606 368.465 630.92 341.485 657.553C306.466 692.118 273.016 726.118 242.231 765.359C210.403 805.977 179.995 847.933 148.966 889.316C127.952 917.35 106.96 948.833 76.6486 966.036C38.6837 987.54 7.5213 964.865 -30.8729 964.603C-63.9006 964.372 -61.4654 882.052 -65.6623 859.163C-69.874 835.994 -79.1562 814.427 -82.7535 791.203C-87.2391 762.213 -87.2984 732.553 -88.4013 703.253C-89.741 667.413 -90.274 633.294 -125.885 619.627C-146.152 611.862 -168.076 610.229 -189.054 605.578C-202.644 602.559 -228.277 597.399 -228.573 577.735Z" stroke="white"/>
<path fill-rule="evenodd" clip-rule="evenodd" d="M-212.336 566.663C-215.798 514.489 -236.251 447.71 -216.91 393.854C-200.386 347.83 -148.708 341.864 -113.911 317.687C-85.1845 297.746 -72.3967 265.115 -58.0373 233.058C-46.5171 207.342 -35.3454 181.379 -22.2685 156.484C-12.6313 138.138 2.08398 107.166 22.1219 103.369C40.136 99.9555 59.4549 127.299 69.5665 141.209C84.3188 161.517 96.9361 183.572 109.969 205.164C132.868 243.092 156.316 277.199 189.831 305.061C223.495 333.042 260.324 353.964 297.545 375.739C326.664 392.777 355.635 410.309 383.301 429.979C403.91 444.624 433.541 463.368 442.971 489.483C450.436 510.142 412.576 544.424 401.412 556.525C378.431 581.403 354.079 604.758 329.682 627.969C299.94 656.253 269.249 680.988 242.984 713.253C196.006 770.938 156.739 842.774 96.2912 885.647C59.833 911.506 19.2604 918.119 -21.2899 914.25C-37.347 912.719 -41.2018 888.335 -43.2256 874.113C-46.5912 850.487 -47.0138 826.454 -49.601 802.732C-52.0251 780.526 -57.4071 759.428 -61.7439 737.653C-66.1325 715.59 -67.3631 692.985 -70.5953 670.77C-72.5968 656.979 -74.5762 640.931 -83.3312 629.844C-92.3901 618.366 -107.335 613.556 -120.397 609.903C-144.928 603.107 -209.89 603.482 -212.336 566.663Z" stroke="white"/>
<path fill-rule="evenodd" clip-rule="evenodd" d="M-191.438 544.822C-197.26 496.93 -205.412 437.281 -181.692 393.157C-162.304 357.079 -120.955 349.297 -91.4209 325.789C-66.8561 306.241 -57.5775 275.149 -45.3841 246.257C-35.3787 222.558 -25.3213 198.756 -13.1947 176.204C-3.99769 159.101 7.85456 135.912 26.115 129.945C41.7276 124.847 59.365 147.686 68.0206 159.053C82.758 178.426 94.7734 200.134 106.707 221.554C126.229 256.604 144.192 294.045 171.976 322.555C198.974 350.221 231.045 366.551 263.716 384.913C288.741 398.98 313.61 413.59 337.188 430.366C355.293 443.239 377.729 458.494 387.163 479.915C395.322 498.388 374.377 520.255 363.911 533.287C346.63 554.795 327.45 574.527 308.537 594.338C288.125 615.711 265.518 635.427 245.767 657.325C204.232 703.408 171.049 754.431 119.857 789.736C86.7038 812.606 42.0911 833.381 2.90004 829.645C-25.2843 826.953 -23.43 759.863 -26.1372 738.427C-30.5873 703.377 -39.1836 666.55 -52.8381 634.264C-64.5643 606.598 -92.4296 598.066 -118.063 591.861C-134.12 587.965 -150.949 585.862 -166.48 579.84C-184.459 572.862 -188.998 564.896 -191.438 544.822Z" stroke="white"/>
<path fill-rule="evenodd" clip-rule="evenodd" d="M-171.945 522.373C-175.411 481.883 -174.632 434.004 -152.177 398.978C-132.498 368.299 -97.4603 360.222 -72.5406 336.055C-53.0918 317.2 -45.4533 286.457 -34.994 261.522C-22.2112 231.035 -4.299 174.726 27.9474 163.254C57.9446 152.588 89.3151 220.721 100.175 241.038C117.367 273.195 131.746 308.459 152.598 338.156C170.555 363.722 194.613 377.855 220.149 393.042C252.707 412.44 302.139 435.442 319.546 473.247C332.522 501.417 290.328 543.297 275.92 562.815C260.851 583.204 249.501 607.372 233.949 627.041C209.408 658.08 169.642 683.07 136.809 702.141C104.889 720.692 63.4378 741.225 27.2274 740.002C3.42855 739.203 -1.0996 699.672 -6.17707 680.362C-13.4518 652.911 -23.1243 628.312 -43.9018 609.641C-65.0506 590.634 -89.9777 581.678 -116.182 573.84C-129.633 569.846 -144.976 566.73 -157.009 558.661C-170.304 549.881 -170.609 537.936 -171.945 522.373Z" stroke="white"/>
<path fill-rule="evenodd" clip-rule="evenodd" d="M-148.194 499.035C-148.002 464.055 -140.565 426.753 -118.516 399.771C-100.151 377.296 -71.4056 369.783 -53.8253 346.808C-39.9001 328.618 -32.8117 303.082 -23.4888 281.959C-12.0867 256.074 4.03604 210.854 32.3896 201.87C60.0624 193.125 84.5388 242.932 95.1491 262.64C110.687 291.539 123.266 322.17 138.945 350.989C151.227 373.599 166.248 388.172 186.247 402.744C209.725 419.861 242.481 438.821 255.022 467.14C264.064 487.643 242.178 520.405 234.231 538.467C228.903 550.599 224.027 562.922 221.349 576.071C219.262 586.311 219.055 595.787 213.01 604.58C197.79 626.697 164.42 629.583 141.779 636.873C111.708 646.548 79.8033 657.543 48.3347 659.642C28.9934 660.954 19.1229 641.786 8.0834 628.303C-4.9613 612.363 -23.4296 600.899 -39.5597 588.871C-60.8471 572.971 -84.0138 563.081 -107.98 552.952C-118.79 548.381 -131.487 543.897 -139.863 534.81C-148.608 525.39 -148.261 511.66 -148.194 499.035Z" stroke="white"/>
<path fill-rule="evenodd" clip-rule="evenodd" d="M-123.249 478.269C-119.427 448.89 -107.517 420.811 -87.4002 400.043C-71.9795 384.098 -51.5 375.121 -39.1234 355.963C-27.5912 338.105 -19.555 317.799 -10.0299 298.704C0.0505585 278.518 15.0269 244.778 38.2765 239.285C63.3333 233.37 82.6352 267.404 93.323 286.267C106.825 310.105 117.084 335.753 129.157 360.412C138.252 378.791 149.853 395.6 163.576 410.28C177.967 425.754 197.483 440.575 204.764 461.854C211.201 480.701 199.157 503.502 197.032 522.612C194.758 543.03 198.742 564.476 186.136 582.007C160.139 618.162 94.8933 611.458 57.5932 612.231C20.7893 613.028 -8.80044 590.904 -38.5827 569.857C-58.2549 555.961 -78.7418 544.194 -98.9103 531.246C-119.471 518.036 -126.611 504.124 -123.249 478.269Z" stroke="white"/>
<path fill-rule="evenodd" clip-rule="evenodd" d="M-100.072 461.454C-88.7699 418.892 -53.4704 396.271 -28.2354 364.107C-7.58787 337.776 7.89408 283.246 42.6673 276.032C82.1466 267.846 105.781 340.098 119.506 367.977C134.736 398.897 161.861 424.047 173.141 456.778C179.07 473.957 173.978 489.987 170.821 507.159C167.36 526.014 164.759 545.291 152.812 560.468C129.297 590.334 83.3695 590.127 50.2934 590.948C16.0538 591.802 -14.2357 571.336 -41.5162 550.909C-70.4495 529.277 -111.648 505.1 -100.072 461.454Z" stroke="white"/>
<path fill-rule="evenodd" clip-rule="evenodd" d="M-81.142 449.913C-68.4067 419.589 -41.6447 394.937 -19.929 371.665C-1.80394 352.263 17.6947 313.207 45.3301 310.423C77.8103 307.139 97.4956 348.845 110.276 374.417C122.854 399.545 140.979 426.077 147.944 453.656C155.207 482.386 135.866 521.077 117.42 541.407C96.8461 564.076 63.1864 572.452 34.3043 571.548C4.06357 570.628 -23.6839 551.893 -46.5865 532.459C-71.0717 511.686 -95.9525 485.114 -81.142 449.913Z" stroke="white"/>
<path fill-rule="evenodd" clip-rule="evenodd" d="M-63.5771 444.204C-51.4123 418.983 -30.3255 397.647 -10.8827 378.616C4.12167 363.924 26.262 338.941 47.9092 338.329C71.7233 337.654 91.9059 358.624 101.373 380.118C110.706 401.318 120.54 427.898 121.937 451.157C124.971 501.805 63.2049 558.541 16.8245 553.924C-27.1498 549.546 -87.8321 494.455 -63.5771 444.204Z" stroke="white"/>
<path fill-rule="evenodd" clip-rule="evenodd" d="M-47.333 441.423C-30.5509 408.562 10.2131 361.714 47.9523 360.601C91.2706 359.33 102.145 411.462 96.4986 449.243C90.7627 487.802 40.8197 543.614 0.99677 536.072C-37.8702 528.713 -67.2221 480.395 -47.333 441.423Z" stroke="white"/>
<path fill-rule="evenodd" clip-rule="evenodd" d="M-30.1814 436.109C-15.9726 408.595 14.348 374.229 45.9718 373.188C83.6522 371.958 82.9414 415.972 74.3968 443.367C65.5117 471.81 26.38 520.39 -6.61353 512.72C-38.6963 505.232 -43.7979 462.48 -30.1814 436.109Z" stroke="white"/>
<path fill-rule="evenodd" clip-rule="evenodd" d="M-15.2428 432.943C-5.86397 413.31 17.6091 388.497 39.9237 387.703C67.1987 386.749 61.8967 421.659 54.8496 438.509C46.4733 458.558 18.3962 493.396 -5.16593 487.75C-28.3642 482.193 -22.9805 449.119 -15.2428 432.943Z" stroke="white"/>
</g>
</g>
<circle opacity="0.5" cx="1230" cy="275" r="370" fill="#8C30F5"/>
<circle cx="1108" cy="730" r="36" fill="#75E3EA"/>
<circle cx="808" cy="474" r="36" fill="#FFC278"/>
<defs>
<clipPath id="clip0_604:2360">
<rect width="1582" height="421" fill="white" transform="translate(-1 469)"/>
</clipPath>
</defs>
</svg>
