<svg width="1440" height="376" viewBox="0 0 1440 376" fill="none" xmlns="http://www.w3.org/2000/svg">
<rect width="1440" height="376" fill="#451977"/>
<g clip-path="url(#clip0_622:2620)">
<rect width="1440" height="358" fill="#A86FEA"/>
<g opacity="0.12">
<path fill-rule="evenodd" clip-rule="evenodd" d="M467.837 30.3389C467.729 5.92114 424.655 -21.5373 406.255 -35.6937C369.874 -63.6933 332.036 -89.5495 294.549 -115.819C257.061 -142.088 219.473 -168.286 183.726 -197.126C160.516 -215.847 133.244 -236.932 117.502 -263.664C83.9689 -320.632 189.697 -312.172 217.084 -313.418C286.756 -316.601 366.669 -315.148 431.975 -344.814C470.96 -362.524 486.506 -392.226 478.133 -435.514C475.434 -449.592 467.445 -465.792 474.213 -479.507C481.439 -494.155 498.064 -502.608 511.862 -508.276C562.189 -528.927 620.053 -531.319 673.302 -533.911C730.72 -536.76 788.679 -535.926 845.693 -536.147C869.868 -536.24 895.116 -545.404 918.137 -552.853C948.317 -562.616 978.14 -573.582 1008.07 -584.185C1073.92 -607.456 1141.77 -631.967 1211.43 -637.877C1255.06 -641.58 1302.74 -636.574 1336.63 -604.366C1353.65 -588.194 1362.55 -564.154 1372.39 -542.798C1384.3 -516.999 1395.74 -490.951 1408.41 -465.557C1449.26 -383.773 1507.56 -303.855 1602.21 -299.838C1616.52 -299.233 1630.59 -301.206 1644.84 -301.576C1653.91 -301.804 1661.99 -299.489 1665.36 -289.47C1673.84 -264.34 1647.18 -224.67 1636.25 -204.731C1612.32 -161.087 1585.33 -119.401 1560.05 -76.6321C1543.32 -48.3476 1514.37 -9.69513 1514.07 24.6706C1513.8 55.2907 1552.39 77.4226 1573.4 92.5048C1593.09 106.626 1628.76 126.386 1630.92 155.112C1631.97 169.041 1623.27 180.584 1614.18 189.542C1598.25 205.208 1579.89 216.26 1565.56 234.133C1542.06 263.458 1522.43 303.805 1525.62 343.319C1527.83 370.699 1542.64 388.63 1561.47 405.77C1569.38 412.976 1575.81 418.075 1576.22 429.774C1576.9 448.353 1570 468.014 1564.32 485.24C1544 546.886 1515.13 606.495 1483.03 662.153C1466.98 689.967 1449.65 717.696 1428.37 741.423C1414.44 757.004 1395.65 775.547 1374.4 775.525C1349.79 775.525 1323.75 766.154 1299.83 759.147C1255.16 746.052 1211.03 730.912 1167.07 715.382C1065.41 679.449 964.708 640.607 864.963 598.854C794.704 569.395 722.954 539.893 656.9 500.728C644.017 493.037 631.858 484.069 620.586 473.946C608.542 463.314 593.597 458.557 578.443 455.011C484.387 433 381.344 449.898 286.897 460.494C262.924 463.179 238.952 465.878 214.911 467.758C194.245 469.374 169.503 474.01 149.417 467.046C109.838 453.338 144.437 402.815 159.065 382.228C210.566 309.744 277.013 248.418 338.601 185.811C367.884 155.995 397.389 126.258 425.08 94.755C439.498 78.3768 467.931 51.7445 467.837 30.3389Z" stroke="white"/>
<path fill-rule="evenodd" clip-rule="evenodd" d="M485.584 26.2225C469.799 0.384877 442.103 -18.7122 419.113 -36.6847C386.029 -62.5579 351.905 -86.9933 318.295 -112.133C286.514 -135.907 254.666 -159.951 225.235 -186.949C207.288 -203.412 184.771 -223.1 176.271 -247.45C157.831 -300.229 257.029 -292.221 281.518 -293.602C342.399 -297.018 411.423 -297.801 467.746 -325.589C502.916 -342.943 517.365 -371.72 509.864 -411.672C507.271 -425.495 502.599 -437.296 508.514 -451.048C515.353 -466.963 531.085 -476.885 545.507 -483.889C590.683 -505.834 644.083 -510.496 693.054 -514.375C743.645 -518.382 796.357 -521.208 845.321 -518.275C864.901 -517.108 887.439 -523.735 906.816 -528.817C936.632 -536.647 966.145 -545.679 995.812 -554.078C1056.11 -571.161 1117.97 -587.617 1180.69 -589.489C1225.97 -590.841 1273.19 -583.51 1310.87 -555.174C1349.05 -526.44 1365.99 -481.896 1387.16 -439.553C1423.73 -366.346 1473.12 -277.338 1557.72 -261.871C1570.55 -259.522 1582.88 -260.796 1595.69 -260.219C1602.28 -259.928 1609.78 -259.002 1613.12 -252.148C1621.8 -234.353 1598.03 -201.818 1590.03 -188.187C1567.92 -150.52 1543.07 -114.696 1519.9 -77.7544C1501.5 -48.4219 1478.18 -15.8295 1471.07 18.941C1462.43 61.1354 1518.85 91.1583 1538.7 120.868C1573.1 172.387 1507.92 201.74 1475.79 226.304C1438.89 254.505 1408.44 305.952 1441.51 349.584C1454.17 366.269 1469.74 376.212 1475.39 397.986C1484.22 432.037 1477.54 470.95 1470.37 504.61C1459.57 555.211 1442.47 605.263 1419.23 650.995C1402.58 683.737 1374.96 735.078 1334.51 731.227C1307.28 728.657 1279.6 719.269 1253.08 710.97C1213.38 698.549 1174.18 684.392 1135.19 669.686C1045.18 635.834 956.165 598.508 868.898 557.453C809.354 529.43 643.26 414.912 630.762 410.826C593.499 398.655 551.131 400.797 512.713 402.683C461.609 405.189 410.761 411.68 359.953 417.695C335.769 420.542 311.462 424.022 287.149 425.425C269.844 426.421 247.117 427.275 231.959 416.663C202.373 395.957 235.335 348.581 248.967 328.537C290.727 267.089 343.553 213.876 393.085 159.468C417.391 132.755 442.069 106.084 464.134 77.2287C473.033 65.5768 495.341 42.1806 485.584 26.2225Z" stroke="white"/>
<path fill-rule="evenodd" clip-rule="evenodd" d="M507.423 12.9716C464.313 -38.7324 404.811 -77.1864 353.458 -120.368C327.683 -142.048 301.746 -164.319 279.516 -190.142C267.952 -203.57 253.512 -220.551 251.284 -239.269C245.33 -289.342 334.737 -282.571 361.498 -284.472C413.236 -288.16 471.684 -290.958 518.623 -316.511C547.3 -332.132 561.423 -357.771 556.063 -391.469C553.687 -406.42 549.987 -419.122 556.063 -433.803C562.22 -448.676 575.046 -459.171 588.035 -467.038C625.36 -489.665 671.745 -496.899 713.769 -502.288C763.067 -508.566 812.736 -511.017 862.375 -509.622C905.85 -508.419 949.116 -521.953 991.565 -530.874C1047.8 -542.686 1105.05 -553.003 1162.6 -551.443C1208.04 -550.205 1253.85 -540.472 1292.7 -514.606C1332.18 -488.262 1355.91 -448.833 1377.31 -406.285C1409.66 -341.965 1449.98 -255.772 1520.95 -231.344C1531.27 -227.784 1540.89 -227.393 1551.54 -226.773C1556.71 -226.474 1563.39 -226.382 1565.95 -220.693C1572.12 -206.995 1549.31 -180.438 1542.94 -171.182C1522.62 -141.635 1500.6 -113.419 1479.77 -84.2635C1460.33 -57.0445 1439.15 -28.6792 1427.07 3.21749C1407.85 54.0173 1469.3 83.7211 1467.58 132.129C1466.51 162.181 1439.23 183.733 1417.62 198.642C1391.02 216.975 1352.73 229.029 1339.41 262.485C1329.5 287.404 1345.06 301.907 1357.04 320.818C1377.35 352.857 1378.73 396.287 1376.62 433.374C1373.77 483.491 1362.64 534.348 1343.69 580.413C1335.1 601.295 1324.58 623.018 1309.1 639.236C1294.59 654.437 1280.86 658.332 1261.47 655.22C1202.12 645.68 1142.19 619.087 1085.27 595.336C1013.76 565.49 943.236 532.539 874.816 495.466C828.161 470.184 780.454 443.435 739.503 408.505C728.83 399.399 717.9 389.502 710.096 377.491C704.196 368.463 701.692 361.009 691.748 355.854C662.274 340.582 621.276 344.576 589.696 346.164C539.199 348.692 488.946 355.42 438.761 361.479C409.476 365.039 354.308 376.238 330.923 349.375C310.738 326.179 335.095 286.628 347.537 266.194C379.009 214.519 419.494 169.166 457.056 122.467C474.27 101.065 492.16 79.499 506.377 55.7047C510.009 49.6386 515.828 41.6003 516.827 34.2313C517.948 25.7873 512.716 19.3438 507.423 12.9716Z" stroke="white"/>
<path fill-rule="evenodd" clip-rule="evenodd" d="M511.13 25.008C471.294 -20.7079 423.302 -58.2652 380.536 -101.045C361.36 -120.227 341.996 -140.349 327.385 -163.748C319.526 -176.331 311.181 -192.171 313.348 -207.811C319.567 -252.7 393.101 -248.646 422.809 -251.275C466.952 -255.137 517.665 -259.027 556.698 -283.232C582.267 -299.086 591.854 -322.499 587.081 -352.696C581.956 -385.088 593.414 -408.601 619.49 -426.671C652.182 -449.308 693.449 -458.535 731.408 -465.09C777.141 -472.951 823.453 -476.435 869.78 -475.5C914.835 -474.588 958.485 -482.554 1003.24 -487.735C1062.59 -494.596 1123.83 -497.981 1182.5 -483.915C1233.59 -471.667 1279.73 -444.677 1314.32 -402.937C1350.45 -359.373 1368.33 -304.487 1397.67 -256.291C1415.97 -226.23 1441.48 -186.463 1475.68 -174.778C1487.08 -170.88 1507.86 -176.139 1498.75 -156.965C1493.55 -145.999 1483.8 -136.38 1476.11 -127.416C1463.67 -112.93 1450.82 -98.8437 1438.18 -84.5575C1411.22 -54.1041 1382.36 -23.0023 1362.16 13.0588C1336.7 58.4611 1374.54 93.4035 1369.93 139.44C1367.45 164.215 1351.12 183.987 1333.85 199.52C1322.68 209.581 1310.45 218.295 1297.97 226.425C1284.93 234.919 1269.5 241.389 1258.13 252.369C1241.93 267.994 1248.96 286.492 1252 306.692C1257.35 342.191 1258.52 378.252 1255.5 414.056C1251.8 457.94 1243.12 503.079 1224.85 542.959C1217.74 558.485 1208.73 574.944 1195.35 585.354C1181.98 595.765 1168.14 595.052 1152.82 591.917C1107.36 582.654 1061.99 561.1 1018.87 540.672C964.893 515.099 911.979 486.52 861.448 454.007C826.568 431.562 791.573 407.315 762.392 376.883C753.905 368.026 745.83 358.542 739.301 347.954C734.818 340.694 732.414 331.324 725.919 325.866C705.596 308.829 664.794 313.917 640.96 314.907C593.394 316.881 546.577 326.265 499.071 328.545C473.144 329.792 432.538 332.927 413.498 309.635C395.592 287.739 411.81 253.252 422.512 232.154C443.544 190.671 471.8 153.712 497.126 115.15C507.538 99.2819 518.948 82.68 525.693 64.5604C531.689 48.4145 521.338 36.729 511.13 25.008Z" stroke="white"/>
<path fill-rule="evenodd" clip-rule="evenodd" d="M520.927 25.7558C489.219 -14.4728 450.994 -50.1834 419.057 -91.0665C400.363 -115.009 368.169 -155.259 382.626 -189.013C398.487 -226.104 453.774 -227.114 485.732 -230.102C523.768 -233.66 568.435 -238.519 600.987 -261.679C611.282 -269 620.052 -278.691 623.769 -291.455C627.75 -305.116 623.398 -317.07 622.832 -330.745C621.644 -359.433 637.876 -382.464 659.357 -398.281C689.715 -420.644 727.677 -431.217 763.534 -438.588C804.158 -446.902 845.457 -451.001 886.838 -450.826C926.385 -450.684 965.514 -451.609 1005.1 -452.676C1056.87 -454.099 1109.37 -451.801 1159.59 -437.293C1209.07 -422.992 1254.04 -396.189 1289.37 -356.765C1323.84 -318.293 1347.1 -271.27 1367.46 -223.371C1379.02 -196.185 1398.54 -155.558 1426.11 -141.826C1438.37 -135.714 1450.4 -136.133 1437.36 -120.238C1420.95 -100.224 1398.83 -84.165 1379.82 -67.0461C1352.39 -42.3426 1324.28 -17.1552 1301.26 12.2158C1286.56 30.9711 1280.01 49.1715 1281.02 73.4552C1281.81 91.9544 1285.35 110.261 1283.56 128.832C1279.36 172.419 1246.82 202.309 1218.05 230.143C1199.55 248.045 1182.65 261.699 1173.12 287.163C1161.85 317.26 1157.13 350.004 1149.6 381.253C1141.33 415.569 1131.77 451.265 1113.72 481.49C1097.65 508.399 1078.1 520.467 1048.85 513.216C1003.23 501.918 958.255 474.083 917.75 448.334C876.523 422.136 836.004 392.68 801.84 356.671C783.396 337.225 770.807 314.393 754.427 293.503C733.823 267.277 687.212 277.209 659.512 279.429C613.528 283.115 468.839 310.693 482.19 221.37C487.762 184.087 509.708 149.679 525.758 116.779C532.41 103.125 542.037 86.7391 543.541 71.093C545.181 54.0524 530.46 37.8656 520.927 25.7558Z" stroke="white"/>
<path fill-rule="evenodd" clip-rule="evenodd" d="M537.669 29.1717C513.438 -7.28353 484.44 -41.7242 463.648 -81.0981C450.161 -106.598 436.916 -140.668 454.315 -167.648C473.953 -198.095 517.255 -205.193 549.073 -209.072C581.854 -213.066 620.989 -216.426 647.782 -239.512C656.306 -246.866 663.333 -256.783 664.642 -268.657C665.903 -280.047 662.342 -291.437 663.522 -303.033C666.166 -329.074 681.13 -350.53 700.424 -366.091C757.498 -412.129 842.443 -422.365 911.304 -423.568C945.772 -424.166 981.245 -421.027 1015.93 -418.777C1060.95 -415.859 1106.03 -409.594 1148.96 -394.495C1240.24 -362.404 1301.42 -291.23 1344.15 -202.666C1357.6 -174.788 1367.89 -144.626 1388.96 -122.223C1399.83 -110.655 1397.45 -102.348 1386.35 -91.7977C1368.98 -75.3106 1347.8 -62.7103 1328.53 -48.9497C1301.11 -29.3802 1273.11 -9.5188 1248.87 13.9233C1232.16 30.083 1220.29 45.6517 1216.69 69.8841C1214.12 87.1613 1214.72 104.766 1213.18 122.15C1210.24 155.174 1200.17 187.949 1182.35 215.342C1168.18 237.054 1151.32 256.788 1133.9 275.603C1111.25 300.098 1092.09 324.986 1074.88 354.059C1052.08 392.543 1020.03 463.531 966.307 444.745C907.056 424.015 851.52 371.343 813.505 320.308C800.739 303.174 790.259 282.159 773.042 269.523C747.267 250.637 721.115 251.299 690.457 251.377C644.558 251.484 544.682 261.999 543.603 189.444C543.178 160.698 554.967 133.519 560.611 105.869C566.977 74.9028 554.218 54.0163 537.669 29.1717Z" stroke="white"/>
<path fill-rule="evenodd" clip-rule="evenodd" d="M555.716 32.4222C531.749 -15.0909 478.004 -93.1649 518.881 -145.999C540.473 -173.921 578.665 -184.414 610.702 -190.667C636.484 -195.725 667.577 -197.624 687.057 -219.065C701.376 -234.829 695.02 -257.771 700.505 -277.505C707.314 -301.969 722.941 -321.987 742.145 -337.033C795.808 -379.083 870.423 -391.987 934.977 -394.733C1002.02 -397.579 1075.89 -384.269 1138.98 -358.666C1217.65 -326.732 1276.58 -266.265 1317.79 -189.692C1325.4 -175.557 1332.31 -161.052 1339.61 -146.746C1344.51 -137.15 1351.79 -127.866 1355.65 -117.772C1362.09 -100.94 1354.51 -87.1822 1342.35 -76.2127C1324.86 -60.4201 1303.37 -49.1803 1283.43 -37.3287C1256.17 -21.1092 1228.29 -5.18143 1202.93 13.848C1185.88 26.6528 1168.04 40.4465 1161.94 62.6629C1157.78 77.8153 1156.92 93.8641 1157.07 109.557C1157.39 143.205 1155.72 170.416 1140.83 201.233C1116.34 251.826 1078.67 297.319 1038.88 335.171C1007.65 364.879 958.242 411.026 912.743 391.164C871.921 373.38 848.041 330.811 821.145 296.394C808.068 279.662 793.379 264.382 776.119 252.48C754.358 237.477 733.872 231.182 708.09 228.727C664.696 224.594 599.265 223.52 585.851 168.602C580.898 148.334 583.725 127.342 581.127 106.811C577.733 79.6649 567.808 56.3885 555.716 32.4222Z" stroke="white"/>
<path fill-rule="evenodd" clip-rule="evenodd" d="M580.638 34.1814C563.571 -17.8071 541.15 -83.3268 582.371 -129.532C602.338 -151.916 630.423 -164.429 657.604 -173.78C677.072 -180.481 707.983 -182.454 719.918 -203.057C728.684 -218.219 729.898 -239.136 737.828 -255.38C748.725 -277.714 765.232 -296.109 784.599 -310.51C835.051 -348.034 900.763 -362.534 960.69 -366.686C1090.9 -375.695 1223.39 -303.943 1293.07 -185.894C1313.84 -150.705 1340.66 -113.252 1307.09 -77.3019C1270.43 -38.0826 1215.21 -19.7086 1171.46 8.15868C1154.74 18.7985 1133.44 31.5891 1124.12 50.8533C1118.51 62.4332 1118.12 76.9615 1117.87 89.7094C1117.19 122.177 1114.64 151.376 1102.26 181.672C1083.15 228.49 1052.68 271.683 1018.15 307.064C988.033 337.915 945.086 374.172 901.35 351.931C867.816 334.839 846.548 298.561 820.493 271.819C791.497 242.036 755.637 221.967 716.257 212.16C677.949 202.646 635.932 196.229 615.743 155.806C608.818 141.94 601.582 123.986 598.986 108.639C594.795 83.3346 588.659 58.433 580.638 34.1814Z" stroke="white"/>
<path fill-rule="evenodd" clip-rule="evenodd" d="M608.426 34.5478C600.531 -17.9495 599.653 -72.6897 636.338 -114.065C653.459 -133.368 675.101 -147.082 696.986 -159.506C713.088 -168.649 729.716 -176.36 741.741 -191.348C752.883 -205.225 761.352 -221.338 772.109 -235.579C786.299 -254.45 803.277 -270.787 822.392 -283.961C870.306 -316.92 928.592 -332.335 984.354 -337.683C1011.35 -340.281 1040.63 -341.634 1067.44 -334.55C1093.33 -327.714 1118.94 -316.906 1142.75 -304.303C1193.36 -277.538 1237.22 -238.341 1269.02 -188.785C1290.83 -154.793 1302.62 -121.741 1274.38 -87.2576C1242.55 -48.3884 1192.64 -26.9423 1151.5 -1.71543C1123.28 15.5867 1091.66 32.547 1086.39 69.3158C1082.19 98.5727 1078.78 126.342 1067.93 153.996C1051.77 194.788 1028.01 231.739 998.053 262.658C970.661 290.825 936.008 314.728 896.827 299.683C865.784 287.742 841.699 260.992 814.577 241.867C784.351 220.506 751.142 208.729 716.172 199.26C684.744 190.715 655.152 177.586 634.84 149.71C630.683 144.014 626.316 137.812 623.111 131.44C619.021 123.308 619.339 115.248 618.536 106.134C616.444 82.0823 611.996 58.3079 608.426 34.5478Z" stroke="white"/>
<path fill-rule="evenodd" clip-rule="evenodd" d="M639.066 30.2568C639.74 -19.6078 651.106 -66.734 682.236 -105.594C695.544 -122.218 711.436 -135.911 726.08 -151.144C737.871 -163.425 749.014 -174.836 762.572 -184.956C794.733 -208.918 820.871 -239.927 855.05 -261.265C900.675 -289.791 952.937 -305.559 1004.79 -311.864C1030.12 -314.945 1056.27 -316.022 1081.89 -312.541C1103.9 -309.553 1124.97 -299.062 1144.52 -288.329C1182.83 -267.305 1220.03 -237.423 1244.91 -199.618C1299.75 -116.271 1191.62 -55.6728 1136.12 -20.1856C1110.59 -3.86116 1071.59 15.045 1061.14 47.38C1053.66 70.4794 1049.11 93.9711 1039.49 116.357C1013.63 176.477 961.146 247.188 891.204 237.774C861.276 233.752 833.998 217.413 806.059 206.445C777.29 195.148 747.597 188.851 717.696 181.94C689.75 175.486 667.477 166.301 649.427 141.675C640.799 129.915 641.562 115.837 640.793 101.409C639.538 77.7109 638.762 53.8769 639.066 30.2568Z" stroke="white"/>
<path fill-rule="evenodd" clip-rule="evenodd" d="M666.966 23.8698C678.202 -51.3963 719.934 -133.566 781.297 -177.276C853.477 -228.695 931.674 -271.993 1017.91 -284.44C1057.9 -290.211 1101.7 -293.051 1139.42 -274.177C1168.14 -259.823 1201.49 -238.366 1217.29 -208.191C1255.95 -134.384 1169.96 -75.6287 1120.97 -41.4828C1094.59 -23.1003 1061.02 -5.18765 1041.14 21.6565C1029.6 37.2207 1023.71 57.8093 1014.4 74.9036C986.183 126.706 939.73 168.488 881.866 175.961C855.111 179.412 828.161 175.142 801.609 171.748C774.429 168.275 746.912 166.389 719.9 161.542C698.339 157.671 672.928 151.116 664.987 126.77C654.973 96.09 662.38 54.6068 666.966 23.8698Z" stroke="white"/>
<path fill-rule="evenodd" clip-rule="evenodd" d="M694.324 11.7789C710.712 -58.984 745.414 -128.009 803.752 -170.253C834.688 -192.654 870.601 -208.117 905.08 -223.395C944.163 -240.71 984.997 -254.15 1026.7 -260.817C1078.63 -269.122 1162.73 -276.608 1189.86 -214.178C1216.79 -152.212 1148.75 -97.3676 1108.51 -66.1137C1082.71 -46.0921 1055.1 -27.7158 1030.45 -5.82813C1017.08 6.03811 1006.79 19.7491 995.476 33.6666C964.215 72.2283 919.649 102.756 874.225 119.052C830.199 134.85 775.736 141.845 729.263 136.624C709.211 134.38 694.879 126.809 688.814 105.284C680.411 75.3623 687.55 41.01 694.324 11.7789Z" stroke="white"/>
<path fill-rule="evenodd" clip-rule="evenodd" d="M721.51 -7.28001C737.79 -69.5841 772.904 -126.49 824.124 -163.884C881.538 -205.803 955.469 -229.097 1023.42 -240.942C1059.54 -247.233 1137.81 -264.291 1156.22 -215.471C1174.63 -166.651 1121.41 -118.539 1090.78 -92.0545C1053.6 -59.959 1013.52 -28.9701 973.481 -0.172891C938.697 24.8651 901.58 50.4634 863.903 69.7986C842.654 80.7674 820.518 89.7233 797.759 96.5602C780.906 101.582 759.476 109.072 741.807 105.334C697.241 95.8934 713.724 22.5102 721.51 -7.28001Z" stroke="white"/>
<path fill-rule="evenodd" clip-rule="evenodd" d="M755.067 -25.937C790.787 -143.761 903.959 -201.71 1012.92 -221.908C1038.25 -226.596 1109.23 -243.501 1123.38 -207.508C1137.1 -172.611 1093.48 -131.226 1073.06 -111.618C1009.78 -50.8593 931.598 -5.80988 857.516 38.8198C834.392 52.7501 792.687 82.98 764.003 69.0354C732.86 53.8671 747.667 -1.50558 755.067 -25.937Z" stroke="white"/>
<path fill-rule="evenodd" clip-rule="evenodd" d="M791.655 -48.615C822.719 -135.384 913.071 -185.149 996.141 -201.555C1016.49 -205.569 1068.16 -218.067 1083.57 -193.854C1097.83 -171.455 1063.8 -139 1051.07 -126.103C1022.72 -97.3839 989.129 -73.7254 955.942 -50.9851C925.256 -29.9459 894.239 -8.38008 861.952 9.41356C844.945 18.7801 813.05 38.766 793.724 24.3033C772.918 8.74455 784.758 -29.3481 791.655 -48.615Z" stroke="white"/>
<path fill-rule="evenodd" clip-rule="evenodd" d="M-207.146 97.112C-208.002 41.5235 -235.996 -16.2487 -222.171 -72.8899C-210.818 -119.409 -153.663 -123.293 -119.375 -144.369C-92.1284 -161.113 -76.6656 -190.775 -61.9305 -219.234C-48.6911 -244.784 -36.7993 -271.102 -22.8524 -296.233C-13.824 -312.479 1.6792 -344.381 21.2587 -344.957C40.0027 -345.512 57.1903 -320.652 68.0782 -305.956C82.2744 -286.801 94.8602 -266.379 108.645 -246.918C131.877 -214.091 159.75 -189.793 191.666 -166.796C227.986 -140.63 264.906 -115.357 302.425 -90.9785C330.05 -72.9753 357.862 -55.1074 384.415 -35.326C401.071 -22.9137 437.831 0.374454 438 23.2571C438.08 34.1757 428.277 46.2679 421.668 54.9956C410.483 69.7694 397.736 83.277 384.948 96.4931C361.13 121.111 336.302 144.613 311.744 168.399C279.868 199.27 249.421 229.635 221.399 264.681C192.427 300.958 164.749 338.429 136.505 375.389C117.377 400.427 98.2694 428.545 70.679 443.909C36.1218 463.114 7.7565 442.863 -27.1914 442.628C-57.2546 442.422 -55.0379 368.902 -58.8582 348.459C-62.6918 327.767 -71.1408 308.505 -74.4153 287.763C-78.4983 261.872 -78.5522 235.383 -79.5561 209.214C-80.7756 177.205 -81.2607 146.733 -113.675 134.527C-132.123 127.591 -152.08 126.133 -171.174 121.979C-183.544 119.283 -206.876 114.674 -207.146 97.112Z" stroke="white"/>
<path fill-rule="evenodd" clip-rule="evenodd" d="M-192.366 87.2233C-195.518 40.6264 -214.135 -19.0142 -196.53 -67.1142C-181.489 -108.219 -134.45 -113.547 -102.776 -135.139C-76.628 -152.949 -64.988 -182.093 -51.9175 -210.723C-41.4314 -233.69 -31.2625 -256.878 -19.3593 -279.112C-10.5872 -295.497 2.80727 -323.158 21.0466 -326.549C37.4438 -329.598 55.0286 -305.178 64.2326 -292.754C77.6607 -274.617 89.1455 -254.919 101.008 -235.635C121.852 -201.761 143.195 -171.3 173.702 -146.416C204.344 -121.426 237.867 -102.74 271.748 -83.2923C298.253 -68.0758 324.624 -52.4177 349.807 -34.8504C368.566 -21.7711 395.537 -5.03011 404.12 18.2933C410.915 36.7439 376.454 67.3621 366.292 78.1689C345.373 100.388 323.207 121.247 301 141.977C273.928 167.238 245.992 189.329 222.084 218.145C179.323 269.664 143.58 333.821 88.5584 372.112C55.3727 395.207 18.4419 401.113 -18.4686 397.658C-33.0844 396.29 -36.5932 374.512 -38.4354 361.811C-41.4989 340.71 -41.8835 319.246 -44.2385 298.06C-46.445 278.227 -51.3439 259.384 -55.2914 239.936C-59.2861 220.232 -60.4063 200.043 -63.3483 180.203C-65.1702 167.886 -66.9719 153.553 -74.941 143.651C-83.1869 133.4 -96.7905 129.104 -108.68 125.841C-131.009 119.772 -190.14 120.107 -192.366 87.2233Z" stroke="white"/>
<path fill-rule="evenodd" clip-rule="evenodd" d="M-173.344 67.717C-178.644 24.9446 -186.064 -28.3289 -164.473 -67.7361C-146.826 -99.9577 -109.188 -106.909 -82.3047 -127.904C-59.9448 -145.363 -51.4991 -173.13 -40.4002 -198.935C-31.2928 -220.1 -22.1382 -241.359 -11.1001 -261.5C-2.72861 -276.775 8.05978 -297.485 24.6812 -302.814C38.8924 -307.367 54.9467 -286.97 62.8253 -276.817C76.2399 -259.515 87.1768 -240.128 98.0395 -220.997C115.809 -189.693 132.16 -156.255 157.45 -130.792C182.024 -106.083 211.216 -91.4986 240.955 -75.0997C263.734 -62.5354 286.37 -49.4874 307.832 -34.5043C324.312 -23.0072 344.734 -9.38292 353.322 9.74799C360.748 26.2465 341.683 45.7758 332.157 57.4152C316.427 76.6244 298.968 94.247 281.753 111.941C263.173 131.029 242.596 148.637 224.617 168.195C186.811 209.353 156.606 254.921 110.009 286.453C79.8315 306.878 39.2232 325.433 3.54999 322.096C-22.1045 319.692 -20.4167 259.773 -22.8809 240.628C-26.9316 209.324 -34.7562 176.434 -47.1851 147.599C-57.8587 122.89 -83.2229 115.27 -106.555 109.728C-121.171 106.249 -136.49 104.371 -150.627 98.9924C-166.992 92.7601 -171.123 85.6456 -173.344 67.717Z" stroke="white"/>
<path fill-rule="evenodd" clip-rule="evenodd" d="M-155.601 47.6682C-158.756 11.5062 -158.047 -31.2558 -137.607 -62.5372C-119.695 -89.9369 -87.8021 -97.1508 -65.1192 -118.735C-47.4161 -135.575 -40.4632 -163.031 -30.9427 -185.301C-19.3074 -212.529 -3.00294 -262.819 26.3491 -273.066C53.6537 -282.591 82.2084 -221.741 92.0938 -203.596C107.743 -174.876 120.831 -143.381 139.811 -116.859C156.156 -94.0255 178.055 -81.4031 201.299 -67.8388C230.935 -50.5142 275.929 -29.9715 291.774 3.79296C303.585 28.9522 265.179 66.3557 252.063 83.7873C238.347 101.997 228.016 123.581 213.86 141.148C191.522 168.869 155.325 191.189 125.439 208.221C96.3844 224.789 58.6538 243.127 25.6936 242.035C4.031 241.322 -0.0907097 206.016 -4.71243 188.77C-11.3342 164.253 -20.1384 142.283 -39.051 125.608C-58.3014 108.633 -80.9911 100.634 -104.843 93.6341C-117.087 90.0664 -131.053 87.2836 -142.006 80.0769C-154.108 72.2352 -154.385 61.5678 -155.601 47.6682Z" stroke="white"/>
<path fill-rule="evenodd" clip-rule="evenodd" d="M-133.982 26.8246C-133.807 -4.41667 -127.038 -37.7312 -106.968 -61.8295C-90.2515 -81.902 -64.0861 -88.6118 -48.0837 -109.132C-35.4084 -125.377 -28.9563 -148.183 -20.4702 -167.049C-10.0916 -190.167 4.58397 -230.554 30.3925 -238.577C55.5814 -246.387 77.8608 -201.904 87.5188 -184.302C101.662 -158.493 113.112 -131.135 127.383 -105.397C138.563 -85.2037 152.235 -72.1889 170.44 -59.1741C191.81 -43.8872 221.626 -26.953 233.042 -1.66177C241.272 16.6499 221.35 45.9101 214.117 62.0419C209.267 72.877 204.829 83.8824 202.391 95.6263C200.492 104.771 200.303 113.235 194.801 121.088C180.947 140.841 150.572 143.418 129.963 149.929C102.592 158.57 73.5504 168.39 44.9064 170.264C27.3011 171.436 18.3167 154.317 8.26804 142.275C-3.60577 128.039 -20.4163 117.8 -35.0986 107.058C-54.4752 92.8572 -75.5625 84.0244 -97.3772 74.9787C-107.217 70.896 -118.774 66.8914 -126.398 58.7758C-134.359 50.362 -134.042 38.0998 -133.982 26.8246Z" stroke="white"/>
<path fill-rule="evenodd" clip-rule="evenodd" d="M-111.276 8.27803C-107.797 -17.9604 -96.9558 -43.0382 -78.6449 -61.5866C-64.6084 -75.8273 -45.9671 -83.8448 -34.7014 -100.955C-24.2044 -116.905 -16.8894 -135.04 -8.21939 -152.093C0.956291 -170.122 14.5883 -200.255 35.7511 -205.161C58.5588 -210.444 76.1281 -180.048 85.8566 -163.201C98.1471 -141.911 107.485 -119.005 118.474 -96.9818C126.753 -80.567 137.313 -65.5545 149.803 -52.4441C162.903 -38.6236 180.668 -25.3869 187.295 -6.38273C193.153 10.4497 182.191 30.8139 180.256 47.8813C178.187 66.1164 181.814 85.2701 170.339 100.928C146.675 133.218 87.2859 127.23 53.3339 127.921C19.8335 128.633 -7.10024 108.874 -34.2093 90.0764C-52.1157 77.6656 -70.7637 67.156 -89.1218 55.5926C-107.837 43.7942 -114.336 31.3693 -111.276 8.27803Z" stroke="white"/>
<path fill-rule="evenodd" clip-rule="evenodd" d="M-90.1792 -6.7399C-79.8916 -44.7518 -47.7607 -64.955 -24.7907 -93.6813C-5.9965 -117.198 8.09579 -165.9 39.7478 -172.342C75.6834 -179.653 97.1963 -115.124 109.69 -90.225C123.553 -62.6104 148.243 -40.1482 158.51 -10.9159C163.907 4.42708 159.272 18.7439 156.399 34.0798C153.248 50.9193 150.881 68.1366 140.006 81.6908C118.601 108.365 76.7965 108.179 46.6894 108.913C15.5231 109.676 -12.0476 91.3969 -36.8795 73.1535C-63.2156 53.834 -100.716 32.2412 -90.1792 -6.7399Z" stroke="white"/>
<path fill-rule="evenodd" clip-rule="evenodd" d="M-72.9486 -17.0473C-61.3564 -44.1296 -36.9965 -66.1469 -17.23 -86.9315C-0.731913 -104.259 17.0165 -139.141 42.1714 -141.627C71.7362 -144.56 89.6545 -107.312 101.287 -84.4733C112.737 -62.031 129.235 -38.3349 135.575 -13.7037C142.186 11.9547 124.58 46.5107 107.79 64.6672C89.0633 84.9134 58.4249 92.3941 32.1353 91.5865C4.60893 90.7648 -20.6479 74.0322 -41.4948 56.6763C-63.7822 38.1232 -86.4297 14.3917 -72.9486 -17.0473Z" stroke="white"/>
<path fill-rule="evenodd" clip-rule="evenodd" d="M-56.9603 -22.146C-45.8874 -44.6713 -26.6933 -63.7262 -8.99567 -80.723C4.66187 -93.845 24.8149 -116.157 44.519 -116.704C66.1956 -117.307 84.5666 -98.5786 93.1842 -79.3817C101.679 -60.4474 110.63 -36.7086 111.902 -15.9363C114.664 29.2987 58.4418 79.9699 16.2245 75.8466C-23.8027 71.9363 -79.0382 22.7342 -56.9603 -22.146Z" stroke="white"/>
<path fill-rule="evenodd" clip-rule="evenodd" d="M-42.1741 -24.6297C-26.8984 -53.9783 10.2067 -95.8187 44.5584 -96.8124C83.9884 -97.948 93.8867 -51.3877 88.7472 -17.6457C83.5261 16.7919 38.066 66.6384 1.8176 59.9028C-33.5607 53.3304 -60.2779 10.1769 -42.1741 -24.6297Z" stroke="white"/>
<path fill-rule="evenodd" clip-rule="evenodd" d="M-26.5621 -29.3752C-13.6286 -53.9483 13.9704 -84.6416 42.7556 -85.5706C77.0538 -86.6699 76.4068 -47.36 68.6292 -22.8933C60.5416 2.50953 24.9224 45.8971 -5.10966 39.0465C-34.3127 32.3589 -38.9564 -5.82333 -26.5621 -29.3752Z" stroke="white"/>
<path fill-rule="evenodd" clip-rule="evenodd" d="M-12.9644 -32.2033C-4.42738 -49.7373 16.9387 -71.8984 37.2504 -72.6075C62.0772 -73.4598 57.2511 -42.281 50.8366 -27.2324C43.2121 -9.32594 17.6552 21.7884 -3.79199 16.7459C-24.908 11.7822 -20.0075 -17.7563 -12.9644 -32.2033Z" stroke="white"/>
</g>
</g>
<defs>
<clipPath id="clip0_622:2620">
<rect width="1440" height="376" fill="white"/>
</clipPath>
</defs>
</svg>
