<svg width="1440" height="376" viewBox="0 0 1440 376" fill="none" xmlns="http://www.w3.org/2000/svg">
<g clip-path="url(#clip0)">
<rect width="1440" height="358" fill="#8C30F5"/>
<g opacity="0.12">
<path fill-rule="evenodd" clip-rule="evenodd" d="M467.837 30.339C467.729 5.92126 424.655 -21.5372 406.255 -35.6936C369.874 -63.6932 332.036 -89.5494 294.549 -115.819C257.061 -142.088 219.473 -168.286 183.726 -197.126C160.516 -215.847 133.244 -236.932 117.502 -263.664C83.9689 -320.631 189.697 -312.172 217.084 -313.418C286.756 -316.601 366.669 -315.148 431.975 -344.814C470.96 -362.524 486.506 -392.226 478.133 -435.514C475.434 -449.592 467.445 -465.792 474.213 -479.507C481.439 -494.155 498.064 -502.607 511.862 -508.276C562.189 -528.926 620.053 -531.319 673.302 -533.911C730.72 -536.76 788.679 -535.926 845.693 -536.147C869.868 -536.24 895.116 -545.404 918.137 -552.853C948.317 -562.616 978.14 -573.582 1008.07 -584.185C1073.92 -607.456 1141.77 -631.967 1211.43 -637.877C1255.06 -641.58 1302.74 -636.574 1336.63 -604.366C1353.65 -588.194 1362.55 -564.154 1372.39 -542.798C1384.3 -516.999 1395.74 -490.95 1408.41 -465.557C1449.26 -383.773 1507.56 -303.854 1602.21 -299.838C1616.52 -299.233 1630.59 -301.205 1644.84 -301.576C1653.91 -301.804 1661.99 -299.489 1665.36 -289.47C1673.84 -264.34 1647.18 -224.669 1636.25 -204.731C1612.32 -161.086 1585.33 -119.4 1560.05 -76.6319C1543.32 -48.3475 1514.37 -9.69501 1514.07 24.6707C1513.8 55.2908 1552.39 77.4227 1573.4 92.5049C1593.09 106.626 1628.76 126.386 1630.92 155.112C1631.97 169.041 1623.27 180.584 1614.18 189.542C1598.25 205.208 1579.89 216.26 1565.56 234.134C1542.06 263.458 1522.43 303.805 1525.62 343.319C1527.83 370.699 1542.64 388.63 1561.47 405.77C1569.38 412.976 1575.81 418.075 1576.22 429.775C1576.9 448.353 1570 468.014 1564.32 485.24C1544 546.886 1515.13 606.495 1483.03 662.153C1466.98 689.967 1449.65 717.696 1428.37 741.423C1414.44 757.004 1395.65 775.547 1374.4 775.525C1349.79 775.525 1323.75 766.154 1299.83 759.147C1255.16 746.052 1211.03 730.913 1167.07 715.382C1065.41 679.449 964.708 640.607 864.963 598.855C794.704 569.395 722.954 539.893 656.9 500.728C644.017 493.037 631.858 484.069 620.586 473.946C608.542 463.314 593.597 458.557 578.443 455.011C484.387 433 381.344 449.898 286.897 460.494C262.924 463.179 238.952 465.878 214.911 467.758C194.245 469.374 169.503 474.01 149.417 467.046C109.838 453.338 144.437 402.815 159.065 382.228C210.566 309.744 277.013 248.418 338.601 185.811C367.884 155.995 397.389 126.258 425.08 94.7551C439.498 78.3769 467.931 51.7446 467.837 30.339Z" stroke="white"/>
<path fill-rule="evenodd" clip-rule="evenodd" d="M485.584 26.2226C469.799 0.385 442.103 -18.7121 419.113 -36.6846C386.029 -62.5578 351.905 -86.9932 318.295 -112.133C286.514 -135.907 254.666 -159.951 225.235 -186.949C207.288 -203.412 184.771 -223.1 176.271 -247.45C157.831 -300.228 257.029 -292.221 281.518 -293.602C342.399 -297.018 411.423 -297.801 467.746 -325.589C502.916 -342.942 517.365 -371.72 509.864 -411.672C507.271 -425.495 502.599 -437.296 508.514 -451.048C515.353 -466.963 531.085 -476.885 545.507 -483.889C590.683 -505.833 644.083 -510.496 693.054 -514.375C743.645 -518.382 796.357 -521.208 845.321 -518.275C864.901 -517.108 887.439 -523.735 906.816 -528.817C936.632 -536.646 966.145 -545.679 995.812 -554.078C1056.11 -571.161 1117.97 -587.617 1180.69 -589.489C1225.97 -590.841 1273.19 -583.51 1310.87 -555.174C1349.05 -526.439 1365.99 -481.896 1387.16 -439.552C1423.73 -366.346 1473.12 -277.338 1557.72 -261.871C1570.55 -259.522 1582.88 -260.796 1595.69 -260.219C1602.28 -259.927 1609.78 -259.002 1613.12 -252.148C1621.8 -234.353 1598.03 -201.818 1590.03 -188.187C1567.92 -150.52 1543.07 -114.696 1519.9 -77.7543C1501.5 -48.4218 1478.18 -15.8294 1471.07 18.9411C1462.43 61.1355 1518.85 91.1584 1538.7 120.868C1573.1 172.387 1507.92 201.741 1475.79 226.304C1438.89 254.505 1408.44 305.952 1441.51 349.585C1454.17 366.269 1469.74 376.212 1475.39 397.986C1484.22 432.037 1477.54 470.95 1470.37 504.61C1459.57 555.211 1442.47 605.263 1419.23 650.995C1402.58 683.737 1374.96 735.078 1334.51 731.227C1307.28 728.658 1279.6 719.269 1253.08 710.97C1213.38 698.549 1174.18 684.392 1135.19 669.687C1045.18 635.834 956.165 598.509 868.898 557.453C809.354 529.43 643.26 414.912 630.762 410.826C593.499 398.655 551.131 400.797 512.713 402.683C461.609 405.189 410.761 411.68 359.953 417.695C335.769 420.542 311.462 424.023 287.149 425.425C269.844 426.421 247.117 427.275 231.959 416.663C202.373 395.957 235.335 348.581 248.967 328.537C290.727 267.089 343.553 213.876 393.085 159.468C417.391 132.755 442.069 106.084 464.134 77.2288C473.033 65.577 495.341 42.1808 485.584 26.2226Z" stroke="white"/>
<path fill-rule="evenodd" clip-rule="evenodd" d="M507.423 12.9716C464.313 -38.7324 404.811 -77.1864 353.458 -120.368C327.683 -142.048 301.746 -164.319 279.516 -190.142C267.952 -203.57 253.512 -220.551 251.284 -239.269C245.33 -289.342 334.737 -282.571 361.498 -284.472C413.236 -288.16 471.684 -290.958 518.623 -316.511C547.3 -332.132 561.423 -357.771 556.063 -391.469C553.687 -406.42 549.987 -419.122 556.063 -433.803C562.22 -448.676 575.046 -459.171 588.035 -467.038C625.36 -489.665 671.745 -496.899 713.769 -502.288C763.067 -508.566 812.736 -511.017 862.375 -509.622C905.85 -508.419 949.116 -521.953 991.565 -530.874C1047.8 -542.686 1105.05 -553.003 1162.6 -551.443C1208.04 -550.205 1253.85 -540.472 1292.7 -514.606C1332.18 -488.262 1355.91 -448.833 1377.31 -406.285C1409.66 -341.965 1449.98 -255.772 1520.95 -231.344C1531.27 -227.784 1540.89 -227.393 1551.54 -226.773C1556.71 -226.474 1563.39 -226.382 1565.95 -220.693C1572.12 -206.995 1549.31 -180.438 1542.94 -171.182C1522.62 -141.635 1500.6 -113.419 1479.77 -84.2635C1460.33 -57.0445 1439.15 -28.6792 1427.07 3.21749C1407.85 54.0173 1469.3 83.7211 1467.58 132.129C1466.51 162.181 1439.23 183.733 1417.62 198.642C1391.02 216.975 1352.73 229.029 1339.41 262.485C1329.5 287.404 1345.06 301.907 1357.04 320.818C1377.35 352.857 1378.73 396.287 1376.62 433.374C1373.77 483.491 1362.64 534.348 1343.69 580.413C1335.1 601.295 1324.58 623.018 1309.1 639.236C1294.59 654.437 1280.86 658.332 1261.47 655.22C1202.12 645.68 1142.19 619.087 1085.27 595.336C1013.76 565.49 943.236 532.539 874.816 495.466C828.161 470.184 780.454 443.435 739.503 408.505C728.83 399.399 717.9 389.502 710.096 377.491C704.196 368.463 701.692 361.009 691.748 355.854C662.274 340.582 621.276 344.576 589.696 346.164C539.199 348.692 488.946 355.42 438.761 361.479C409.476 365.039 354.308 376.238 330.923 349.375C310.738 326.179 335.095 286.628 347.537 266.194C379.009 214.519 419.494 169.166 457.056 122.467C474.27 101.065 492.16 79.499 506.377 55.7047C510.009 49.6386 515.828 41.6003 516.827 34.2313C517.948 25.7873 512.716 19.3438 507.423 12.9716Z" stroke="white"/>
<path fill-rule="evenodd" clip-rule="evenodd" d="M511.13 25.0081C471.294 -20.7077 423.302 -58.2651 380.536 -101.045C361.36 -120.227 341.996 -140.348 327.385 -163.748C319.526 -176.331 311.181 -192.171 313.348 -207.811C319.567 -252.7 393.101 -248.646 422.809 -251.275C466.952 -255.137 517.665 -259.027 556.698 -283.232C582.267 -299.085 591.854 -322.499 587.081 -352.696C581.956 -385.088 593.414 -408.601 619.49 -426.671C652.182 -449.308 693.449 -458.535 731.408 -465.09C777.141 -472.95 823.453 -476.435 869.78 -475.5C914.835 -474.588 958.485 -482.554 1003.24 -487.734C1062.59 -494.596 1123.83 -497.981 1182.5 -483.915C1233.59 -471.667 1279.73 -444.676 1314.32 -402.936C1350.45 -359.372 1368.33 -304.486 1397.67 -256.291C1415.97 -226.229 1441.48 -186.463 1475.68 -174.778C1487.08 -170.88 1507.86 -176.139 1498.75 -156.965C1493.55 -145.999 1483.8 -136.38 1476.11 -127.416C1463.67 -112.93 1450.82 -98.8436 1438.18 -84.5574C1411.22 -54.104 1382.36 -23.0021 1362.16 13.0589C1336.7 58.4612 1374.54 93.4036 1369.93 139.44C1367.45 164.215 1351.12 183.987 1333.85 199.52C1322.68 209.581 1310.45 218.296 1297.97 226.426C1284.93 234.919 1269.5 241.389 1258.13 252.369C1241.93 267.994 1248.96 286.492 1252 306.692C1257.35 342.192 1258.52 378.252 1255.5 414.056C1251.8 457.94 1243.12 503.079 1224.85 542.959C1217.74 558.485 1208.73 574.945 1195.35 585.355C1181.98 595.765 1168.14 595.052 1152.82 591.917C1107.36 582.654 1061.99 561.1 1018.87 540.672C964.893 515.099 911.979 486.52 861.448 454.007C826.568 431.562 791.573 407.315 762.392 376.883C753.905 368.026 745.83 358.543 739.301 347.954C734.818 340.694 732.414 331.324 725.919 325.866C705.596 308.829 664.794 313.917 640.96 314.907C593.394 316.881 546.577 326.265 499.071 328.545C473.144 329.792 432.538 332.927 413.498 309.635C395.592 287.739 411.81 253.252 422.512 232.154C443.544 190.671 471.8 153.712 497.126 115.15C507.538 99.282 518.948 82.6801 525.693 64.5605C531.689 48.4146 521.338 36.7292 511.13 25.0081Z" stroke="white"/>
<path fill-rule="evenodd" clip-rule="evenodd" d="M520.927 25.7559C489.219 -14.4727 450.994 -50.1832 419.057 -91.0664C400.363 -115.009 368.169 -155.259 382.626 -189.013C398.487 -226.103 453.774 -227.114 485.732 -230.102C523.768 -233.66 568.435 -238.519 600.987 -261.679C611.282 -269 620.052 -278.691 623.769 -291.455C627.75 -305.116 623.398 -317.07 622.832 -330.745C621.644 -359.433 637.876 -382.464 659.357 -398.281C689.715 -420.644 727.677 -431.217 763.534 -438.588C804.158 -446.902 845.457 -451.001 886.838 -450.826C926.385 -450.683 965.514 -451.608 1005.1 -452.676C1056.87 -454.099 1109.37 -451.801 1159.59 -437.293C1209.07 -422.992 1254.04 -396.189 1289.37 -356.765C1323.84 -318.293 1347.1 -271.27 1367.46 -223.371C1379.02 -196.185 1398.54 -155.557 1426.11 -141.825C1438.37 -135.714 1450.4 -136.133 1437.36 -120.238C1420.95 -100.224 1398.83 -84.1648 1379.82 -67.046C1352.39 -42.3424 1324.28 -17.1551 1301.26 12.2159C1286.56 30.9712 1280.01 49.1716 1281.02 73.4553C1281.81 91.9545 1285.35 110.262 1283.56 128.832C1279.36 172.419 1246.82 202.309 1218.05 230.143C1199.55 248.045 1182.65 261.699 1173.12 287.164C1161.85 317.26 1157.13 350.004 1149.6 381.253C1141.33 415.569 1131.77 451.266 1113.72 481.49C1097.65 508.4 1078.1 520.467 1048.85 513.216C1003.23 501.918 958.255 474.084 917.75 448.334C876.523 422.136 836.004 392.68 801.84 356.671C783.396 337.225 770.807 314.393 754.427 293.503C733.823 267.277 687.212 277.21 659.512 279.43C613.528 283.115 468.839 310.693 482.19 221.371C487.762 184.088 509.708 149.679 525.758 116.779C532.41 103.125 542.037 86.7392 543.541 71.0931C545.181 54.0526 530.46 37.8657 520.927 25.7559Z" stroke="white"/>
<path fill-rule="evenodd" clip-rule="evenodd" d="M537.669 29.1719C513.438 -7.2834 484.44 -41.724 463.648 -81.098C450.161 -106.597 436.916 -140.668 454.315 -167.648C473.953 -198.095 517.255 -205.193 549.073 -209.072C581.854 -213.066 620.989 -216.426 647.782 -239.512C656.306 -246.866 663.333 -256.782 664.642 -268.657C665.903 -280.047 662.342 -291.437 663.522 -303.033C666.166 -329.074 681.13 -350.53 700.424 -366.091C757.498 -412.128 842.443 -422.365 911.304 -423.568C945.772 -424.166 981.245 -421.027 1015.93 -418.777C1060.95 -415.859 1106.03 -409.594 1148.96 -394.495C1240.24 -362.404 1301.42 -291.23 1344.15 -202.665C1357.6 -174.788 1367.89 -144.626 1388.96 -122.223C1399.83 -110.655 1397.45 -102.348 1386.35 -91.7976C1368.98 -75.3105 1347.8 -62.7102 1328.53 -48.9496C1301.11 -29.3801 1273.11 -9.51868 1248.87 13.9235C1232.16 30.0831 1220.29 45.6519 1216.69 69.8842C1214.12 87.1615 1214.72 104.766 1213.18 122.15C1210.24 155.174 1200.17 187.949 1182.35 215.342C1168.18 237.054 1151.32 256.788 1133.9 275.603C1111.25 300.098 1092.09 324.986 1074.88 354.059C1052.08 392.543 1020.03 463.531 966.307 444.745C907.056 424.015 851.52 371.343 813.505 320.309C800.739 303.174 790.259 282.159 773.042 269.523C747.267 250.637 721.115 251.299 690.457 251.377C644.558 251.484 544.682 261.999 543.603 189.444C543.178 160.698 554.967 133.519 560.611 105.87C566.977 74.9029 554.218 54.0164 537.669 29.1719Z" stroke="white"/>
<path fill-rule="evenodd" clip-rule="evenodd" d="M555.716 32.4223C531.749 -15.0908 478.004 -93.1648 518.881 -145.999C540.473 -173.921 578.665 -184.414 610.702 -190.667C636.484 -195.724 667.577 -197.624 687.057 -219.065C701.376 -234.829 695.02 -257.771 700.505 -277.505C707.314 -301.969 722.941 -321.987 742.145 -337.033C795.808 -379.083 870.423 -391.987 934.977 -394.733C1002.02 -397.579 1075.89 -384.269 1138.98 -358.666C1217.65 -326.732 1276.58 -266.265 1317.79 -189.692C1325.4 -175.557 1332.31 -161.052 1339.61 -146.746C1344.51 -137.149 1351.79 -127.866 1355.65 -117.771C1362.09 -100.94 1354.51 -87.1821 1342.35 -76.2126C1324.86 -60.4199 1303.37 -49.1802 1283.43 -37.3286C1256.17 -21.1091 1228.29 -5.1813 1202.93 13.8481C1185.88 26.653 1168.04 40.4466 1161.94 62.663C1157.78 77.8154 1156.92 93.8642 1157.07 109.557C1157.39 143.206 1155.72 170.416 1140.83 201.233C1116.34 251.826 1078.67 297.319 1038.88 335.171C1007.65 364.879 958.242 411.026 912.743 391.164C871.921 373.38 848.041 330.811 821.145 296.394C808.068 279.662 793.379 264.382 776.119 252.481C754.358 237.478 733.872 231.182 708.09 228.728C664.696 224.595 599.265 223.52 585.851 168.602C580.898 148.335 583.725 127.342 581.127 106.811C577.733 79.665 567.808 56.3887 555.716 32.4223Z" stroke="white"/>
<path fill-rule="evenodd" clip-rule="evenodd" d="M580.638 34.1817C563.571 -17.8068 541.15 -83.3266 582.371 -129.532C602.338 -151.916 630.423 -164.429 657.604 -173.779C677.072 -180.481 707.983 -182.454 719.918 -203.057C728.684 -218.219 729.898 -239.135 737.828 -255.38C748.725 -277.714 765.232 -296.109 784.599 -310.509C835.051 -348.034 900.763 -362.533 960.69 -366.685C1090.9 -375.694 1223.39 -303.943 1293.07 -185.893C1313.84 -150.705 1340.66 -113.252 1307.09 -77.3016C1270.43 -38.0824 1215.21 -19.7083 1171.46 8.15892C1154.74 18.7988 1133.44 31.5894 1124.12 50.8536C1118.51 62.4335 1118.12 76.9618 1117.87 89.7096C1117.19 122.178 1114.64 151.377 1102.26 181.672C1083.15 228.49 1052.68 271.684 1018.15 307.064C988.033 337.916 945.086 374.172 901.35 351.931C867.816 334.839 846.548 298.561 820.493 271.819C791.497 242.036 755.637 221.967 716.257 212.16C677.949 202.646 635.932 196.229 615.743 155.806C608.818 141.94 601.582 123.986 598.986 108.639C594.795 83.3348 588.659 58.4333 580.638 34.1817Z" stroke="white"/>
<path fill-rule="evenodd" clip-rule="evenodd" d="M608.426 34.5479C600.531 -17.9494 599.653 -72.6895 636.338 -114.065C653.459 -133.368 675.101 -147.082 696.986 -159.506C713.088 -168.649 729.716 -176.36 741.741 -191.348C752.883 -205.225 761.352 -221.338 772.109 -235.579C786.299 -254.45 803.277 -270.787 822.392 -283.96C870.306 -316.92 928.592 -332.335 984.354 -337.682C1011.35 -340.281 1040.63 -341.634 1067.44 -334.55C1093.33 -327.714 1118.94 -316.906 1142.75 -304.303C1193.36 -277.538 1237.22 -238.341 1269.02 -188.785C1290.83 -154.793 1302.62 -121.741 1274.38 -87.2575C1242.55 -48.3883 1192.64 -26.9422 1151.5 -1.71531C1123.28 15.5868 1091.66 32.5472 1086.39 69.3159C1082.19 98.5729 1078.78 126.342 1067.93 153.997C1051.77 194.788 1028.01 231.739 998.053 262.658C970.661 290.826 936.008 314.728 896.827 299.683C865.784 287.743 841.699 260.992 814.577 241.867C784.351 220.506 751.142 208.73 716.172 199.26C684.744 190.715 655.152 177.586 634.84 149.71C630.683 144.014 626.316 137.812 623.111 131.44C619.021 123.308 619.339 115.248 618.536 106.135C616.444 82.0825 611.996 58.308 608.426 34.5479Z" stroke="white"/>
<path fill-rule="evenodd" clip-rule="evenodd" d="M639.066 30.257C639.74 -19.6076 651.106 -66.7337 682.236 -105.594C695.544 -122.218 711.436 -135.911 726.08 -151.144C737.871 -163.425 749.014 -174.836 762.572 -184.955C794.733 -208.918 820.871 -239.926 855.05 -261.264C900.675 -289.791 952.937 -305.559 1004.79 -311.864C1030.12 -314.944 1056.27 -316.021 1081.89 -312.541C1103.9 -309.553 1124.97 -299.062 1144.52 -288.329C1182.83 -267.305 1220.03 -237.423 1244.91 -199.618C1299.75 -116.27 1191.62 -55.6725 1136.12 -20.1853C1110.59 -3.86092 1071.59 15.0452 1061.14 47.3802C1053.66 70.4797 1049.11 93.9714 1039.49 116.358C1013.63 176.478 961.146 247.188 891.204 237.774C861.276 233.752 833.998 217.413 806.059 206.445C777.29 195.148 747.597 188.851 717.696 181.941C689.75 175.486 667.477 166.301 649.427 141.675C640.799 129.915 641.562 115.837 640.793 101.41C639.538 77.7112 638.762 53.8771 639.066 30.257Z" stroke="white"/>
<path fill-rule="evenodd" clip-rule="evenodd" d="M666.966 23.87C678.202 -51.3962 719.934 -133.566 781.297 -177.276C853.477 -228.694 931.674 -271.992 1017.91 -284.44C1057.9 -290.211 1101.7 -293.051 1139.42 -274.177C1168.14 -259.823 1201.49 -238.366 1217.29 -208.191C1255.95 -134.384 1169.96 -75.6285 1120.97 -41.4826C1094.59 -23.1002 1061.02 -5.18752 1041.14 21.6566C1029.6 37.2209 1023.71 57.8094 1014.4 74.9037C986.183 126.706 939.73 168.488 881.866 175.961C855.111 179.412 828.161 175.142 801.609 171.748C774.429 168.275 746.912 166.389 719.9 161.542C698.339 157.671 672.928 151.116 664.987 126.77C654.973 96.0902 662.38 54.607 666.966 23.87Z" stroke="white"/>
<path fill-rule="evenodd" clip-rule="evenodd" d="M694.324 11.779C710.712 -58.9839 745.414 -128.009 803.752 -170.253C834.688 -192.653 870.601 -208.117 905.08 -223.395C944.163 -240.71 984.997 -254.15 1026.7 -260.817C1078.63 -269.122 1162.73 -276.607 1189.86 -214.178C1216.79 -152.211 1148.75 -97.3675 1108.51 -66.1136C1082.71 -46.092 1055.1 -27.7157 1030.45 -5.82801C1017.08 6.03823 1006.79 19.7492 995.476 33.6668C964.215 72.2285 919.649 102.756 874.225 119.052C830.199 134.85 775.736 141.845 729.263 136.624C709.211 134.38 694.879 126.809 688.814 105.284C680.411 75.3624 687.55 41.0101 694.324 11.779Z" stroke="white"/>
<path fill-rule="evenodd" clip-rule="evenodd" d="M721.51 -7.27977C737.79 -69.5839 772.904 -126.49 824.124 -163.884C881.538 -205.803 955.469 -229.096 1023.42 -240.941C1059.54 -247.233 1137.81 -264.291 1156.22 -215.471C1174.63 -166.65 1121.41 -118.539 1090.78 -92.0542C1053.6 -59.9588 1013.52 -28.9699 973.481 -0.172646C938.697 24.8653 901.58 50.4636 863.903 69.7989C842.654 80.7676 820.518 89.7235 797.759 96.5604C780.906 101.582 759.476 109.072 741.807 105.334C697.241 95.8937 713.724 22.5104 721.51 -7.27977Z" stroke="white"/>
<path fill-rule="evenodd" clip-rule="evenodd" d="M755.067 -25.9369C790.787 -143.761 903.959 -201.709 1012.92 -221.908C1038.25 -226.596 1109.23 -243.5 1123.38 -207.508C1137.1 -172.611 1093.48 -131.225 1073.06 -111.618C1009.78 -50.8592 931.598 -5.80976 857.516 38.8199C834.392 52.7503 792.687 82.9801 764.003 69.0355C732.86 53.8673 747.667 -1.50546 755.067 -25.9369Z" stroke="white"/>
<path fill-rule="evenodd" clip-rule="evenodd" d="M791.655 -48.615C822.719 -135.384 913.071 -185.149 996.141 -201.555C1016.49 -205.569 1068.16 -218.067 1083.57 -193.854C1097.83 -171.455 1063.8 -139 1051.07 -126.103C1022.72 -97.3839 989.129 -73.7254 955.942 -50.9851C925.256 -29.9459 894.239 -8.38008 861.952 9.41356C844.945 18.7801 813.05 38.766 793.724 24.3033C772.918 8.74455 784.758 -29.3481 791.655 -48.615Z" stroke="white"/>
<path fill-rule="evenodd" clip-rule="evenodd" d="M-207.146 97.1121C-208.002 41.5236 -235.996 -16.2486 -222.171 -72.8898C-210.818 -119.409 -153.663 -123.293 -119.375 -144.369C-92.1284 -161.113 -76.6656 -190.774 -61.9305 -219.234C-48.6911 -244.784 -36.7993 -271.102 -22.8524 -296.232C-13.824 -312.479 1.6792 -344.381 21.2587 -344.957C40.0027 -345.512 57.1903 -320.652 68.0782 -305.956C82.2744 -286.801 94.8602 -266.379 108.645 -246.918C131.877 -214.091 159.75 -189.793 191.666 -166.796C227.986 -140.63 264.906 -115.357 302.425 -90.9783C330.05 -72.9752 357.862 -55.1072 384.415 -35.3258C401.071 -22.9136 437.831 0.374577 438 23.2573C438.08 34.1758 428.277 46.268 421.668 54.9957C410.483 69.7695 397.736 83.2772 384.948 96.4932C361.13 121.111 336.302 144.613 311.744 168.399C279.868 199.27 249.421 229.635 221.399 264.681C192.427 300.958 164.749 338.429 136.505 375.389C117.377 400.427 98.2694 428.545 70.679 443.909C36.1218 463.114 7.7565 442.863 -27.1914 442.628C-57.2546 442.422 -55.0379 368.902 -58.8582 348.459C-62.6918 327.767 -71.1408 308.505 -74.4153 287.763C-78.4983 261.872 -78.5522 235.383 -79.5561 209.214C-80.7756 177.205 -81.2607 146.733 -113.675 134.527C-132.123 127.592 -152.08 126.133 -171.174 121.979C-183.544 119.283 -206.876 114.674 -207.146 97.1121Z" stroke="white"/>
<path fill-rule="evenodd" clip-rule="evenodd" d="M-192.366 87.2234C-195.518 40.6265 -214.135 -19.0141 -196.53 -67.114C-181.489 -108.218 -134.45 -113.547 -102.776 -135.139C-76.628 -152.949 -64.988 -182.092 -51.9175 -210.723C-41.4314 -233.69 -31.2625 -256.878 -19.3593 -279.112C-10.5872 -295.496 2.80727 -323.158 21.0466 -326.549C37.4438 -329.598 55.0286 -305.178 64.2326 -292.754C77.6607 -274.617 89.1455 -254.919 101.008 -235.635C121.852 -201.761 143.195 -171.3 173.702 -146.416C204.344 -121.426 237.867 -102.74 271.748 -83.2922C298.253 -68.0757 324.624 -52.4176 349.807 -34.8503C368.566 -21.771 395.537 -5.02999 404.12 18.2934C410.915 36.7441 376.454 67.3622 366.292 78.169C345.373 100.388 323.207 121.247 301 141.977C273.928 167.238 245.992 189.329 222.084 218.145C179.323 269.664 143.58 333.821 88.5584 372.112C55.3727 395.207 18.4419 401.113 -18.4686 397.658C-33.0844 396.29 -36.5932 374.513 -38.4354 361.811C-41.4989 340.71 -41.8835 319.246 -44.2385 298.06C-46.445 278.227 -51.3439 259.385 -55.2914 239.937C-59.2861 220.232 -60.4063 200.043 -63.3483 180.203C-65.1702 167.886 -66.9719 153.553 -74.941 143.651C-83.1869 133.4 -96.7905 129.104 -108.68 125.842C-131.009 119.772 -190.14 120.107 -192.366 87.2234Z" stroke="white"/>
<path fill-rule="evenodd" clip-rule="evenodd" d="M-173.344 67.7171C-178.644 24.9447 -186.064 -28.3287 -164.473 -67.736C-146.826 -99.9576 -109.188 -106.909 -82.3047 -127.903C-59.9448 -145.362 -51.4991 -173.13 -40.4002 -198.935C-31.2928 -220.1 -22.1382 -241.358 -11.1001 -261.5C-2.72861 -276.774 8.05978 -297.485 24.6812 -302.814C38.8924 -307.367 54.9467 -286.97 62.8253 -276.817C76.2399 -259.515 87.1768 -240.128 98.0395 -220.997C115.809 -189.693 132.16 -156.255 157.45 -130.792C182.024 -106.083 211.216 -91.4985 240.955 -75.0995C263.734 -62.5353 286.37 -49.4873 307.832 -34.5041C324.312 -23.0071 344.734 -9.3828 353.322 9.74811C360.748 26.2467 341.683 45.776 332.157 57.4153C316.427 76.6245 298.968 94.2471 281.753 111.941C263.173 131.029 242.596 148.638 224.617 168.195C186.811 209.353 156.606 254.921 110.009 286.453C79.8315 306.878 39.2232 325.433 3.54999 322.096C-22.1045 319.692 -20.4167 259.773 -22.8809 240.628C-26.9316 209.324 -34.7562 176.434 -47.1851 147.599C-57.8587 122.89 -83.2229 115.27 -106.555 109.728C-121.171 106.249 -136.49 104.371 -150.627 98.9925C-166.992 92.7602 -171.123 85.6457 -173.344 67.7171Z" stroke="white"/>
<path fill-rule="evenodd" clip-rule="evenodd" d="M-155.601 47.6682C-158.756 11.5062 -158.047 -31.2558 -137.607 -62.5372C-119.695 -89.9369 -87.8021 -97.1508 -65.1192 -118.735C-47.4161 -135.575 -40.4632 -163.031 -30.9427 -185.301C-19.3074 -212.529 -3.00294 -262.819 26.3491 -273.066C53.6537 -282.591 82.2084 -221.741 92.0938 -203.596C107.743 -174.876 120.831 -143.381 139.811 -116.859C156.156 -94.0255 178.055 -81.4031 201.299 -67.8388C230.935 -50.5142 275.929 -29.9715 291.774 3.79296C303.585 28.9522 265.179 66.3557 252.063 83.7873C238.347 101.997 228.016 123.581 213.86 141.148C191.522 168.869 155.325 191.189 125.439 208.221C96.3844 224.789 58.6538 243.127 25.6936 242.035C4.031 241.322 -0.0907097 206.016 -4.71243 188.77C-11.3342 164.253 -20.1384 142.283 -39.051 125.608C-58.3014 108.633 -80.9911 100.634 -104.843 93.6341C-117.087 90.0664 -131.053 87.2836 -142.006 80.0769C-154.108 72.2352 -154.385 61.5678 -155.601 47.6682Z" stroke="white"/>
<path fill-rule="evenodd" clip-rule="evenodd" d="M-133.982 26.8246C-133.807 -4.41667 -127.038 -37.7312 -106.968 -61.8295C-90.2515 -81.902 -64.0861 -88.6118 -48.0837 -109.132C-35.4084 -125.377 -28.9563 -148.183 -20.4702 -167.049C-10.0916 -190.167 4.58397 -230.554 30.3925 -238.577C55.5814 -246.387 77.8608 -201.904 87.5188 -184.302C101.662 -158.493 113.112 -131.135 127.383 -105.397C138.563 -85.2037 152.235 -72.1889 170.44 -59.1741C191.81 -43.8872 221.626 -26.953 233.042 -1.66177C241.272 16.6499 221.35 45.9101 214.117 62.0419C209.267 72.877 204.829 83.8824 202.391 95.6263C200.492 104.771 200.303 113.235 194.801 121.088C180.947 140.841 150.572 143.418 129.963 149.929C102.592 158.57 73.5504 168.39 44.9064 170.264C27.3011 171.436 18.3167 154.317 8.26804 142.275C-3.60577 128.039 -20.4163 117.8 -35.0986 107.058C-54.4752 92.8572 -75.5625 84.0244 -97.3772 74.9787C-107.217 70.896 -118.774 66.8914 -126.398 58.7758C-134.359 50.362 -134.042 38.0998 -133.982 26.8246Z" stroke="white"/>
<path fill-rule="evenodd" clip-rule="evenodd" d="M-111.276 8.27816C-107.797 -17.9603 -96.9558 -43.038 -78.6449 -61.5865C-64.6084 -75.8272 -45.9671 -83.8447 -34.7014 -100.955C-24.2044 -116.904 -16.8894 -135.04 -8.21939 -152.093C0.956291 -170.122 14.5883 -200.255 35.7511 -205.161C58.5588 -210.444 76.1281 -180.047 85.8566 -163.201C98.1471 -141.911 107.485 -119.005 118.474 -96.9817C126.753 -80.5669 137.313 -65.5544 149.803 -52.444C162.903 -38.6235 180.668 -25.3868 187.295 -6.38261C193.153 10.4499 182.191 30.814 180.256 47.8814C178.187 66.1166 181.814 85.2703 170.339 100.928C146.675 133.219 87.2859 127.23 53.3339 127.921C19.8335 128.633 -7.10024 108.874 -34.2093 90.0765C-52.1157 77.6658 -70.7637 67.1561 -89.1218 55.5927C-107.837 43.7943 -114.336 31.3694 -111.276 8.27816Z" stroke="white"/>
<path fill-rule="evenodd" clip-rule="evenodd" d="M-90.1792 -6.73966C-79.8916 -44.7516 -47.7607 -64.9548 -24.7907 -93.681C-5.9965 -117.198 8.09579 -165.899 39.7478 -172.342C75.6834 -179.653 97.1963 -115.124 109.69 -90.2247C123.553 -62.6102 148.243 -40.1479 158.51 -10.9157C163.907 4.42733 159.272 18.7441 156.399 34.08C153.248 50.9195 150.881 68.1368 140.006 81.6911C118.601 108.365 76.7965 108.18 46.6894 108.914C15.5231 109.676 -12.0476 91.3971 -36.8795 73.1537C-63.2156 53.8342 -100.716 32.2414 -90.1792 -6.73966Z" stroke="white"/>
<path fill-rule="evenodd" clip-rule="evenodd" d="M-72.9486 -17.0472C-61.3564 -44.1295 -36.9965 -66.1467 -17.23 -86.9313C-0.731913 -104.259 17.0165 -139.141 42.1714 -141.627C71.7362 -144.56 89.6545 -107.312 101.287 -84.4732C112.737 -62.0309 129.235 -38.3348 135.575 -13.7036C142.186 11.9549 124.58 46.5109 107.79 64.6673C89.0633 84.9135 58.4249 92.3942 32.1353 91.5866C4.60893 90.7649 -20.6479 74.0324 -41.4948 56.6764C-63.7822 38.1233 -86.4297 14.3918 -72.9486 -17.0472Z" stroke="white"/>
<path fill-rule="evenodd" clip-rule="evenodd" d="M-56.9603 -22.1459C-45.8874 -44.6712 -26.6933 -63.726 -8.99567 -80.7229C4.66187 -93.8449 24.8149 -116.157 44.519 -116.704C66.1956 -117.307 84.5666 -98.5784 93.1842 -79.3816C101.679 -60.4473 110.63 -36.7085 111.902 -15.9362C114.664 29.2988 58.4418 79.97 16.2245 75.8467C-23.8027 71.9364 -79.0382 22.7343 -56.9603 -22.1459Z" stroke="white"/>
<path fill-rule="evenodd" clip-rule="evenodd" d="M-42.1741 -24.6297C-26.8984 -53.9783 10.2067 -95.8187 44.5584 -96.8124C83.9884 -97.948 93.8867 -51.3877 88.7472 -17.6457C83.5261 16.7919 38.066 66.6384 1.8176 59.9028C-33.5607 53.3304 -60.2779 10.1769 -42.1741 -24.6297Z" stroke="white"/>
<path fill-rule="evenodd" clip-rule="evenodd" d="M-26.5621 -29.3751C-13.6286 -53.9482 13.9704 -84.6415 42.7556 -85.5705C77.0538 -86.6697 76.4068 -47.3599 68.6292 -22.8932C60.5416 2.50965 24.9224 45.8973 -5.10966 39.0466C-34.3127 32.359 -38.9564 -5.82321 -26.5621 -29.3751Z" stroke="white"/>
<path fill-rule="evenodd" clip-rule="evenodd" d="M-12.9644 -32.2031C-4.42738 -49.7372 16.9387 -71.8982 37.2504 -72.6073C62.0772 -73.4597 57.2511 -42.2809 50.8366 -27.2323C43.2121 -9.32582 17.6552 21.7885 -3.79199 16.746C-24.908 11.7823 -20.0075 -17.7562 -12.9644 -32.2031Z" stroke="white"/>
</g>
</g>
<defs>
<clipPath id="clip0">
<rect width="1440" height="376" fill="white"/>
</clipPath>
</defs>
</svg>
